<?xml version="1.0" encoding="UTF-8" standalone="no"?>
<svg xmlns:rdf="http://www.w3.org/1999/02/22-rdf-syntax-ns#" xmlns="http://www.w3.org/2000/svg" xml:space="preserve" width="316" height="316" viewBox="0 0 129.8 129.8" version="1.1" xmlns:cc="http://creativecommons.org/ns#" xmlns:dc="http://purl.org/dc/elements/1.1/"><g transform="matrix(1.25 0 0 -1.25 -123.46 346.38)"><g transform="translate(.75520 .75520)"><path d="m200.26 224.38c0-27.82-22.552-50.372-50.372-50.372s-50.372 22.552-50.372 50.372 22.552 50.372 50.372 50.372 50.372-22.552 50.372-50.372" fill="#005daa"/><g stroke="#fcc01f" fill="none"><path d="m200.26 224.38c0-27.82-22.552-50.372-50.372-50.372s-50.372 22.552-50.372 50.372 22.552 50.372 50.372 50.372 50.372-22.552 50.372-50.372z" stroke-width="1.496"/><path d="m197.69 224.51c0-26.455-21.446-47.902-47.902-47.902s-47.903 21.447-47.903 47.902 21.447 47.902 47.903 47.902 47.902-21.447 47.902-47.902z" stroke-width="0.641"/><path d="m184.35 224.4c0-19.15-15.524-34.674-34.674-34.674s-34.674 15.524-34.674 34.674 15.524 34.674 34.674 34.674 34.674-15.524 34.674-34.674z" stroke-width="1.069"/><path d="m142.62 248.12h14.767m-18.572-1.781h22.028m-25.065-1.78h27.892m-29.83-1.885h32.134m-33.861-1.78h35.694m-37.422-1.885h38.888m-39.778-1.833h41.192m-42.345-1.832h43.077m-44.176-1.781h45.015m-45.539-1.852h46.219m-46.742-1.813h47.213m-47.109-1.781h47.423m-47.632-1.885h47.685m-47.738-1.833h47.633m-47.528-1.832h47.633m-3.98-10.944h-39.935m40.93 1.833h-42.135m43.445 1.885h-44.282m44.91 1.78h-45.696m46.115 1.885h-46.69m33.861-15.656h-20.771m18.467-0.943h-15.953m19.984 1.885h-24.069m25.274 0.89h-26.74m28.206 0.891h-29.41m30.563 0.994h-31.977m33.076 0.891h-34.019m34.438 0.89h-35.223m36.479 0.942h-37.003m37.58 0.943h-38.417m42.5 10.053h-47.318" stroke-width="0.427"/></g><path d="m149.85 201.11c7.266 0 13.779 3.218 18.195 8.306l-0.002 1.392h-2.067v0.019l-1.144-0.077c-0.013 0.113 0.038 0.24-0.038 0.316-0.518-0.013-1.175-0.051-1.692-0.139l-0.089 0.051 0.025 3.094c-0.202 0.555 0.164 0.985 0.202 1.502 0.05 0.203 0.227 0.165 0.391 0.127l0.709 2.235c-0.405 0.089-0.67 0.114-1.125 0.064l-0.088 0.05c0.025 0.505-0.038 0.997 0.05 1.452l0.518 0.051v0.695c-0.05 0.062-0.152 0.088-0.202 0.101l-15.864-0.026-7.388 0.026-3.146 0.038-0.265-0.038 0.014-0.683c0-0.29 0.353-0.113 0.479-0.164 0.013-0.48 0.089-0.997 0.025-1.452-0.366-0.063-0.846 0.025-1.225-0.076 0.203-0.745 0.468-1.478 0.746-2.197 0.113 0 0.226 0.088 0.341 0.025 0.429-1.63 0.214-3.12 0.277-4.875-0.442 0.012-1.061-0.088-1.528-0.088-0.025 0.075 0.025 0.189-0.025 0.277-0.23-0.06-0.459-0.086-0.685-0.099v-0.209l-3.767-0.083c0-0.744 0.912-1.396 0.912-2.122 4.387-4.615 10.585-7.493 17.456-7.493" fill="#fcc01f"/><path d="m137.58 205.6c-0.032 0.016-0.067 0.029-0.1 0.043 0.047-0.027 0.093-0.055 0.139-0.081l-0.039 0.038z" fill="#c1c6e1"/><path d="m174.07 225.54c0-13.299-10.781-24.081-24.08-24.081-13.3 0-24.081 10.782-24.081 24.081 0 13.3 10.781 24.081 24.081 24.081 13.299 0 24.08-10.781 24.08-24.081z" stroke="#fcc01f" stroke-width="0.855" fill="none"/><g><path d="m150.69 250.76c0.127-0.215 0.026-0.556 0-0.821 0.076-0.063 0.19-0.114 0.24-0.227 0.025-0.253-0.24-0.177-0.29-0.405-0.077-0.669 0.34-1.174 0.77-1.566 0-0.265 0.139-0.619-0.113-0.821l-2.198 0.026c-0.164 0.202-0.101 0.618-0.051 0.884 0.392 0.303 0.771 0.72 0.657 1.25 0.025 0.341-0.643 0.568-0.139 0.821-0.126 0.315-0.252 0.657 0.025 0.947 0.052 0.126 0.304 0.202 0.48 0.228 0.253 0.075 0.506-0.089 0.619-0.316" fill="#fcc01f"/><path d="m150.13 250.61c0.013-0.101 0.089-0.315-0.063-0.328-0.064 0-0.164 0.05-0.164 0.139-0.013 0.113 0.1 0.291 0.227 0.189" fill="#fff"/><path d="m64.182 32.273c-0.10844 0.01-0.22336 0.04852-0.33398 0.07227 0.31625 0.42625 0.3482 1.0745 0.2207 1.5957-0.1725 0.42625-0.52148 0.82055-0.58398 1.2793h0.99414c0.15875-0.885-0.09375-1.975 0-2.8438-0.08687-0.095-0.18844-0.11352-0.29688-0.10352zm-2.5449 3.7988-10.861 4.3418 2.1016 4.6875v24.068h22.59v-22.582l-0.11524-0.98242 0.35156-0.81836 2.3223-4.625-10.846-4.0898h-5.543zm2.5645 33.17c-0.52623 0.01146-1.044 0.10976-1.5215 0.29883-0.12625 0-0.25203 0.07883-0.36328 0.14258l-13.041 0.0332c-0.0325 0.80375 0.04875 1.7973-0.0625 2.6348l-1.248 0.03125 0.39453 1.0586 11.004 0.01563 0.16016 0.0957c0.0625 0.25125 0.07742 0.53656-0.04883 0.78906l-10.373 0.03125 0.31641 1.2773h10.514c0.095 0.07875 0.12766 0.11133 0.25391 0.11133 0.52125 1.3262 1.9101 2.243 3.2363 2.4805 1.8 0.3 3.677-0.41148 4.7207-2.0215 0.9475-1.31 1.0256-3.4745 0.14062-4.832-0.85219-1.4325-2.5033-2.1809-4.082-2.1465zm4.1133 0.44336-0.23633 0.0625c1.1212 1.01 1.6739 2.3359 1.8164 3.7422h10.658c0.0625-0.395 0.34695-0.75992 0.31445-1.1387l-1.0742 0.03125c-0.0625-0.0625-0.14258-0.12437-0.14258-0.20312 0.1425-0.77375 0.08133-1.6904 0.04883-2.4629l-11.385-0.03125zm4.5957 4.6875c-1.0575 0.11-2.132 0.03125-3.0957 0.0625-0.0625 0.41125-0.2032 0.8068-0.31445 1.2168 3.3475 0.0475 6.6616 0.0475 10.057 0 0.03125-0.42625 0.31508-0.79055 0.26758-1.2168l-0.14062-0.03125-6.7734-0.03125zm-22.418 2.1953-1.1367 0.04687c0 2.4625-0.1425 4.9887 0.03125 7.4824l0.2207 0.04883c0.6475 0.4575 1.0746 0.56703 1.9121 0.45703 0.39375-0.395 0.92992-0.64719 1.4512-0.71094 0.88375-0.14125 1.6891 0.07969 2.2891 0.71094l0.99609 0.06445c0.41-0.30125 0.83484-0.63289 1.3398-0.77539 0.96375-0.2675 1.9098 0.01594 2.5898 0.74219 0.2525 0 0.53726-0.03055 0.79102 0.0332 0.2525-0.20625 0.53656-0.42781 0.82031-0.57031 0.97875-0.34625 2.0367-0.23664 2.793 0.50586 0.805 0.3475 1.2022-0.77344 1.9922-0.71094 0.21875-0.0625 0.53328 0.03187 0.70703-0.07813 0.585 0.14125 1.1688 0.34656 1.6426 0.82031 0.6625 0.25375 0.96312-0.41086 1.4531-0.56836 0.9625-0.37875 2.1624-0.23664 2.9199 0.53711 0.8225 0.41 1.1696-0.61586 1.9121-0.63086 0.9475-0.1425 1.7191-0.00039 2.4141 0.66211l0.71094 0.0332 0.08008-0.0957c0.3075-0.30125 0.71648-0.48797 1.1465-0.57422l-0.02734-0.41992 0.01563-6.8516-0.04687-0.11133h-10.484c-0.94625 1.4838-2.3509 2.3686-3.9609 2.6523-2.1475 0.22125-4.2316-0.77359-5.3691-2.6836l-9.2031-0.01563zm-4.4043 4.2617c-0.49 0.03125-1.0907 0.03063-1.627 0.10938v0.53711l1.5938 0.03125 0.0332-0.67773zm36.09 0.04687c-0.52125 0-1.1206 0.0013-1.6719 0.11133l0.03125 0.66211c0.22125-0.01625 0.36211 0.0175 0.56836-0.03125 0.315 0.04875 0.69352 0.015 1.1035 0.03125-0.015-0.3 0.01625-0.50469-0.03125-0.77344zm-38.361 0.0625c-0.48875 0.02625-1.0895 0.02609-1.627 0.08984v0.43359l1.5957 0.02734 0.03125-0.55078zm4.2598 0.01758c-0.45574 0.01488-0.98211 0.10062-1.4199 0.125l-0.06445 0.45703c0.67875-0.03125 1.2314-0.03125 1.9102 0v-0.56836c-0.13031-0.01563-0.27387-0.01863-0.42578-0.01367zm36.484 0.09375c-0.52125 0.0475-1.1682 0.000078-1.752 0.14258-0.07875 0.1575 0.01563 0.31578 0.01563 0.48828h1.7676l-0.03125-0.63086zm-39.785 1.0078c-0.5567 0.0019-1.2872 0.0568-1.5234 0.45898 0.05875 0.1925 0.25719 0.46031 0.27344 0.72656 0.01625 0.26125 0.15273 0.54406 0.36523 0.75781 0.21375 0.21125 0.5007 0.35328 0.81445 0.33203 0.4575 0.5375 1.5068 0.14203 2.0605 0.26953 0.53625-0.36375 1.1526-0.63148 1.7988-0.64648-0.0625-0.49 0-0.99562-0.0625-1.4219-0.28375-0.07875-0.34711 0.21945-0.63086 0.18945-0.505 0.44125-0.8693 0.97812-1.2168 1.5156-0.28375 0.015-0.50406-0.01695-0.78906-0.0957 0.15875-0.52125 0.53914-0.96242 0.86914-1.4199v-0.18945c-0.2525-0.205-1.1531-0.4232-1.4844-0.4707-0.12219 0-0.28904-0.0065-0.47461-0.0059zm37.639 0.27344c-0.62502-0.0433-1.2575 0.30664-1.7656 0.2832 0.2825 0.44125 0.67586 0.8843 0.88086 1.3418-0.33125-0.13625-0.70758-0.26414-1.0801-0.33789l0.01172 0.33789c0.21625 0.02375 0.42453 0.07188 0.61328 0.14062 0.52 0.095 0.88367 0.71086 1.4512 0.56836 0.52125-0.41125 1.3108-0.53641 1.957-0.34766l-1.4512-1.7832c-0.20156-0.13-0.40885-0.18869-0.61719-0.20312zm2.8809 0.27734c-0.205-0.04625-1.0014 0.22594-1.1914 0.21094l0.45703 0.53516 0.73438-0.74609zm-27.488 2.0977c-0.4575 0.06375-0.86859 0.39344-1.1211 0.77344l-1.293 0.03125-0.56836 1.5645c-0.33125-0.06375-0.58477-0.31648-0.85352-0.52148 0.1425-0.37875 0.30078-0.74172 0.36328-1.168-0.22-0.23625-0.41094-0.44211-0.74219-0.47461-0.6475-0.17375-1.4358-0.06156-1.8945 0.61719l-1.1367-0.01758c-0.285 0.475-0.47344 1.0738-0.83594 1.5-0.2225-0.11-0.55219-0.18828-0.64844-0.42578 0.20625-0.37875 0.47461-0.77297 0.53711-1.1992-0.4725-0.3475-1.1207-0.61578-1.7832-0.42578-0.30125 0.1725-0.67976 0.23578-0.88477 0.51953h-1.1055c-0.1375 0.18875-0.27797 0.38453-0.41797 0.58203 0.35375 0.255 0.71047 0.50219 1.0742 0.74219 0.87375-0.23125 1.8338-0.09664 2.5801 0.41211l0.0332-0.03125 0.2832 0.22266c0.07875 0.095 0.2832-0.08 0.2207 0.09375l0.03125-0.03125c0.695 0.25375 0.995-0.48961 1.5-0.56836 1.0888-0.41 2.3057-0.17289 3.1895 0.50586 0.285 0.0775 0.56852 0.10875 0.88477 0.09375l0.74219-0.45898c1.0425-0.41 2.3201-0.26727 3.2051 0.42773l0.96289 0.03125c0.9475-0.86875 2.2257-0.96266 3.377-0.56641 0.50625 0.15625 0.85383 0.77203 1.4863 0.58203 0.69375-0.6 1.6234-0.93156 2.5234-0.78906 0.85375-0.01625 1.4073 0.94719 2.2285 0.77344 0.69375-0.6 1.4666-0.85219 2.4141-0.77344 0.89875-0.03125 1.4528 0.78844 2.3203 0.77344 0.50625-0.42625 1.0745-0.69469 1.707-0.77344 0.93125-0.1425 1.7353 0.18969 2.4141 0.74219 0.9775 0.33125 1.6098-0.85219 2.6523-0.71094 0.27875-0.045 0.53133-0.01812 0.76758 0.04687 0.14625-0.09625 0.2925-0.19422 0.4375-0.29297-0.1975-0.085-0.39984-0.15844-0.62109-0.17969-0.41-0.49-0.58367-1.3106-1.2949-1.4531-0.6-0.19-1.2632-0.06297-1.6895 0.39453-0.15875 0.4425-0.66352 0.23766-1.0098 0.28516 0.09375 0.26875 0.26898 0.52094 0.36523 0.80469 0.04625 0.1425 0.25062 0.25398 0.17188 0.42774-0.1575-0.06375-0.37961-0.12828-0.53711-0.23828-0.85375 0-0.74172-0.94688-1.1992-1.3906-0.71125-0.41-1.5328-0.36242-2.1641 0.17383-0.205 0.45875-0.67789 0.06516-1.0254 0.22266 0.09375 0.4575 0.41016 0.86805 0.34766 1.3105l-0.99414-0.50586c-0.23625-0.48875-0.15852-1.2149-0.82227-1.4199-0.615-0.36375-1.2788-0.09492-1.7988 0.29883-0.16 0.5375-0.8218 0.17516-1.2168 0.31641 0.095 0.41125 0.12695 0.85234 0.2207 1.2461l-0.04687 0.06445c-0.315-0.15875-0.64726-0.28461-0.94727-0.50586l-0.10937-0.99414c-0.22-0.41-0.69492-0.63211-1.1699-0.56836-0.5675-0.06375-0.99297 0.42656-1.3242 0.72656-0.395 0.015-0.85242-0.01625-1.2012 0.03125 0.04875 0.41125 0.04875 0.96375 0 1.375-0.31375-0.2225-0.59969-0.38031-0.89844-0.57031l0.04687-1.168c-0.34875-0.31625-0.85242-0.45891-1.3262-0.31641-0.31625 0.17375-0.52086 0.28336-0.66211 0.63086l-1.6738 0.01758-0.08008 0.55273c0.095 0.36375-0.07883 0.64727-0.14258 1.0098-0.39375 0-0.69477-0.28391-0.97852-0.47266l0.28516-1.5332c-0.28375-0.3625-0.72805-0.34766-1.1543-0.37891zm-13.314 0.09961-0.03125 1.2168c0.19-0.26875 0.44211-0.61664 0.59961-0.93164-0.19-0.11-0.36211-0.20516-0.56836-0.28516zm32.527 2.2871c-0.9325-0.0625-1.2328 1.0266-2.1328 0.78906v0.25195c0.2175 0.57125 0.41148 1.1574 0.58398 1.7324 1.1588-0.41125 2.2871-0.88758 3.3809-1.4238-0.12625-0.26625-0.25836-0.5275-0.41211-0.78125-0.37875-0.3625-0.89992-0.58461-1.4199-0.56836zm-24.396 0.04297c-0.56104-0.0011-1.1173 0.27703-1.4961 0.71484h-1.5c-0.02125 0.04-0.04125 0.0818-0.0625 0.12305 1.145 0.6075 2.3315 1.1465 3.5527 1.6152 0.24125-0.64875 0.47586-1.294 0.69336-1.959-0.17375-0.22125-0.39336-0.26898-0.63086-0.39648-0.18156-0.06687-0.36963-0.09728-0.55664-0.09766zm14.863 0.0078c-0.34359 0-0.68305 0.08242-0.95117 0.24805-0.14125 0.19-0.39586 0.20578-0.53711 0.42578l-1.1367 0.03125c-0.11 0.85375 0.0325 1.8637-0.09375 2.7949-0.3475-0.17375-0.67922-0.37766-1.0117-0.56641l0.08008-2.2598-0.11133-0.15625c-0.56875-0.5525-1.374-0.52203-2.0527-0.26953-0.52125 0.60125-1.1357 0.52148-1.7832 0.52148l-0.45703 2.7793c-0.395 0.0625-0.71242-0.42711-1.1074-0.50586l0.42773-2.4473c-0.6325-0.505-1.4997-0.61695-2.2734-0.2207-0.395 0.58375-1.0745 0.22008-1.627 0.36133-0.2675 0.6775-0.47586 1.3966-0.69336 2.0879 0.48875 0.16875 0.98172 0.3257 1.4805 0.4707 0.44062-0.13922 0.8888-0.20297 1.3281-0.18359-0.4389-0.01904-0.88768 0.04458-1.3281 0.18359 2.865 0.8325 5.8955 1.2812 9.0293 1.2812 3.2931 0 6.4697-0.49426 9.4629-1.4102 0.000617 0.000161 0.0013-0.000162 0.002 0 0.23064-0.07108 0.45934-0.1459 0.6875-0.2207-0.10875-0.05375-0.21812-0.1068-0.32812-0.1543-0.4425-0.8375-0.31555-2.0367-1.2793-2.543-0.49-0.315-1.2151-0.23688-1.7051-0.04687-0.34625 0.0625-0.56852 0.55328-0.91602 0.45703-0.205 0.11125-0.50461 0.01563-0.72461 0.07813-0.065 0.3175 0.20438 0.63359 0.10937 0.96484 0.17375 0.5375 0.17328 1.1526 0.36328 1.6738l-0.04687 0.0625c-0.37875-0.20625-0.77422-0.37961-1.1367-0.59961l-0.286-2.211c-0.1575-0.14125-0.23711-0.25141-0.41211-0.37891-0.28375-0.16562-0.63102-0.24805-0.97461-0.24805zm12.154 0.73633c0.01875 0.04375 0.03984 0.08836 0.05859 0.13086 0.06-0.03125 0.12289-0.06195 0.18164-0.0957-0.07625-0.0025-0.15648-0.01141-0.24023-0.03516zm-17.413 2.304c0.48644 0.01359 0.9662 0.12784 1.4023 0.3418 0.29076 0.14264 0.56211 0.32969 0.80274 0.5625-0.24062-0.23312-0.51188-0.4198-0.80274-0.5625-0.87258-0.42809-1.9212-0.45148-2.8438-0.08398-0.17375 0.01969-0.31787 0.09592-0.45117 0.19336 0.13283-0.09699 0.27801-0.17569 0.45117-0.19531 0.46172-0.18375 0.95497-0.26945 1.4414-0.25586zm11.109 0.01563c0.23938 0.0063 0.46908 0.04525 0.69531 0.09766-0.48327-0.11165-0.9987-0.12666-1.5312-0.0293-0.68625 0.02344-1.1948 0.72119-1.8125 0.86328 0.61708-0.14301 1.1249-0.84182 1.8105-0.86523 0.28438-0.05187 0.56555-0.07359 0.83789-0.06641zm-16.324 0.0625c0.27683 0.01614 0.55002 0.06259 0.81445 0.14648-0.26436-0.08351-0.53768-0.13055-0.81445-0.14648zm11.037 0.01563c-0.29104-0.0091-0.58229 0.01747-0.85938 0.07813-0.13885 0.03039-0.27414 0.06984-0.4043 0.11719-0.37875 0.22125-0.80547 0.31524-1.1367 0.64648 0.33233-0.33034 0.75715-0.42619 1.1367-0.64844 0.13-0.04719 0.26556-0.08496 0.4043-0.11523 0.27747-0.06056 0.56781-0.08749 0.85938-0.07813zm-7.7168 0.35742c-0.19944 0.14605-0.37154 0.33912-0.57422 0.45312-0.1354 0.07616-0.28425 0.11787-0.46289 0.08789 0.17881 0.02974 0.32752-0.01161 0.46289-0.08789 0.20306-0.11442 0.37441-0.30693 0.57422-0.45312zm9.3574 0.14062c0.11822 0.07917 0.22938 0.16688 0.33203 0.26562 0.24094 0.12188 0.4581 0.13721 0.66406 0.08984-0.20535 0.04685-0.42417 0.03361-0.66406-0.08789-0.10266-0.09891-0.2138-0.18829-0.33203-0.26758z" transform="matrix(.8 0 0 -.8 98.765 275.5)" fill="#005daa"/><path d="m60.088 8.3301c-0.33984-0.012031-0.75258-0.00656-1.252 0.039063-2.1363 0.1925-3.4629 1.3128-3.3379 2.6953 0.0925 1.0188 0.75617 1.8447 2.5449 2.7734l0.74609 0.38867c1.3488 0.7025 1.6313 1.26 1.6875 1.875 0.06 0.66625-0.54719 1.4961-1.9297 1.6211-0.9525 0.08625-1.89-0.17226-2.3125-1.0723-0.09625-0.20625-0.18031-0.4632-0.19531-0.62695-0.0087-0.1-0.03437-0.21367-0.17187-0.20117-0.12375 0.01125-0.15875 0.15375-0.15625 0.34375 0.0025 0.2025 0.0098 0.96305 0.07227 1.6543 0.025 0.27625 0.07633 0.33414 0.33008 0.40039 0.68125 0.17875 1.3822 0.20625 2.2734 0.125 0.815-0.07375 1.6652-0.26508 2.3965-0.73633 1.0538-0.69125 1.3123-1.5896 1.2461-2.3184-0.1075-1.195-0.84609-2.0023-2.8086-2.9785l-0.45312-0.22461c-1.3475-0.67625-1.7405-1.0846-1.793-1.6621-0.069-0.7552 0.575-1.3594 1.713-1.4631 0.99875-0.09 1.478 0.2493 1.7305 0.4668 0.3525 0.2975 0.46336 0.68047 0.47461 0.79297 0.0125 0.15125 0.06633 0.22289 0.17383 0.21289 0.1225-0.01125 0.15977-0.11633 0.13477-0.39258-0.08875-0.98-0.05922-1.3499-0.07422-1.5137-0.0075-0.08875-0.08727-0.11836-0.22852-0.13086-0.20375-0.02625-0.4707-0.056328-0.81055-0.068359zm-18.562 4.082c-0.1425 0.05875-0.17578 0.22211-0.20703 0.63086l-0.55078 8.8066c-0.045 0.70125-0.1518 1.2095-0.7793 1.5508-0.10875 0.05875-0.30289 0.15328-0.43164 0.20703-0.115 0.04625-0.16156 0.09406-0.13281 0.16406 0.03875 0.09375 0.13336 0.08016 0.31836 0.0039 0.7425-0.30625 1.5124-0.66352 1.6699-0.72852 0.4425-0.1825 1.0691-0.40109 1.5254-0.58984 0.15625-0.06375 0.23211-0.12305 0.19336-0.2168-0.02875-0.07-0.0807-0.07711-0.25195-0.0059l-0.21484 0.08789c-0.44125 0.1825-0.63125 0.085-0.71875-0.125-0.0575-0.14-0.10258-0.44953-0.08008-0.80078l0.08008-1.9863c0-0.08125 0.02055-0.11648 0.0918-0.14648l3.18-1.316c0.07125-0.02875 0.12328-0.02211 0.17578 0.02539l2.1621 2.002c0.13 0.11 0.07242 0.25531-0.01758 0.32031-0.1375 0.07-0.185 0.1175-0.15625 0.1875 0.03375 0.08125 0.20555 0.01102 0.4668-0.08398 1.1512-0.4475 2.1926-0.87734 2.7051-1.0898 0.5275-0.2175 0.64617-0.29297 0.60742-0.38672-0.0325-0.08125-0.11086-0.06312-0.22461-0.01563-0.17125 0.07-0.38969 0.14672-0.61719 0.19922-0.32375 0.06625-0.805 0.0743-1.7812-0.75195-1.645-1.3975-5.8925-5.2168-6.5-5.7168-0.25375-0.21-0.38297-0.28031-0.51172-0.22656zm43.84 0.25c-0.11373 0.01213-0.25203 0.11367-0.48828 0.31055l-6.6934 5.7441c-0.53375 0.4575-0.97305 0.73789-1.6543 0.52539-0.11875-0.03625-0.32047-0.11297-0.44922-0.16797-0.1125-0.04875-0.18094-0.04852-0.21094 0.02148-0.03875 0.0925 0.03695 0.15172 0.2207 0.23047 0.73625 0.3175 1.5305 0.6193 1.6855 0.68555 0.43875 0.19 1.0338 0.48859 1.4863 0.68359 0.15625 0.0675 0.25297 0.08078 0.29297-0.01172 0.03-0.07-0.0038-0.1118-0.17383-0.18555l-0.21289-0.08984c-0.43875-0.19-0.50016-0.39477-0.41016-0.60352 0.06-0.13875 0.24938-0.38719 0.51563-0.61719l1.4805-1.3262c0.05875-0.0575 0.09797-0.06906 0.16797-0.03906l3.1582 1.3633c0.07125 0.03125 0.10367 0.07258 0.10742 0.14258l0.07422 2.9453c0.01125 0.17-0.13219 0.23094-0.24219 0.21094-0.14625-0.04875-0.21539-0.04922-0.24414 0.01953-0.035 0.08125 0.13602 0.15414 0.38476 0.27539 1.1238 0.5125 2.158 0.95969 2.668 1.1797 0.52375 0.225 0.66117 0.25656 0.70117 0.16406 0.035-0.08125-0.03008-0.12312-0.14258-0.17188-0.17-0.07375-0.37867-0.17648-0.57617-0.30273-0.27125-0.18625-0.61242-0.52578-0.70117-1.8008-0.1475-2.1538-0.37641-7.8608-0.44141-8.6445-0.0275-0.32875-0.06586-0.46844-0.19336-0.52344-0.03531-0.01531-0.07146-0.02162-0.10938-0.01758zm-1.2695 2.2422c0.0425 0.0175 0.03039 0.08156 0.02539 0.13281l0.04102 3.4141c-0.0012 0.04-0.03031 0.06906-0.10156 0.03906l-2.6055-1.123c-0.0575-0.025-0.05719-0.06742-0.02344-0.10742l2.5352-2.2891c0.0325-0.04125 0.08641-0.08516 0.12891-0.06641zm-41.938 0.04687c0.0425-0.0175 0.08149 0.03492 0.11524 0.07617l2.4727 2.3535c0.02875 0.02875 0.02828 0.06891-0.04297 0.09766l-2.623 1.084c-0.0575 0.02375-0.0868-0.0048-0.0918-0.05859l0.12695-3.4121c-0.005-0.0525 0.000469-0.12188 0.04297-0.14062zm-11.562 3.5703c-0.04906 0.01703-0.10945 0.0557-0.17383 0.11133-0.43375 0.37125-0.89 0.81172-1.125 1.0117-0.2225 0.19125-0.73781 0.58211-1.1953 0.97461-0.16375 0.14-0.22188 0.23938-0.17187 0.29688 0.0575 0.0675 0.14359 0.0268 0.21484-0.0332 0.0925-0.08 0.25719-0.22172 0.39844-0.29297s0.29016-0.0643 0.34766 0.002c0.065 0.0775 0.16234 0.26086 0.18359 0.47461 0.05375 0.42 0.11742 2.6762 0.13867 3.3887-1.0162-0.26-2.1434-0.50945-3.3047-0.8457-0.16-0.045-0.30352-0.12023-0.35352-0.17773-0.04875-0.0575-0.07148-0.15469 0.0098-0.27344 0.06875-0.10875 0.21125-0.24859 0.28125-0.30859 0.10625-0.09125 0.16102-0.16883 0.10352-0.23633-0.0575-0.06625-0.14359-0.02797-0.30859 0.11328-0.43375 0.37125-1.0667 0.96227-1.2305 1.1035-0.55125 0.47125-1.5254 1.2548-1.8066 1.4961-0.15125 0.13125-0.21797 0.21984-0.16797 0.27734 0.0575 0.0675 0.12922 0.05609 0.19922-0.0039 0.1175-0.1 0.32203-0.24297 0.55078-0.35547 0.5-0.245 0.97789-0.25578 1.5879-0.11328l4.3555 1.0078 0.002 4.5352c-0.0038 0.80125-0.06875 1.1755-0.34375 1.543-0.1425 0.18875-0.31008 0.34797-0.39258 0.41797-0.09375 0.08125-0.13859 0.17102-0.08984 0.22852s0.1318 0.03484 0.24805-0.06641l0.19922-0.16992c0.1875-0.16125 0.73844-0.67984 0.96094-0.87109 0.2925-0.25 1.055-0.85476 1.125-0.91602l0.21289-0.17969c0.1525-0.13 0.21766-0.21961 0.16016-0.28711-0.04875-0.0575-0.14484-0.02609-0.21484 0.03516-0.09375 0.08-0.20641 0.15969-0.28516 0.21094-0.1225 0.07125-0.27703 0.10359-0.36328 0.02734-0.1025-0.095-0.16664-0.28992-0.18164-0.54492l-0.22656-3.7754c1.1538 0.2575 2.6359 0.63469 4.0859 1.0234 0.1875 0.05375 0.21406 0.17828 0.16406 0.23828-0.08875 0.11-0.12102 0.19055-0.07227 0.24805 0.0575 0.0675 0.16602 0.0039 0.47852-0.24609 0.91875-0.75375 1.8457-1.5471 2.127-1.7871l0.35156-0.30078c0.12875-0.11125 0.19812-0.22156 0.14062-0.28906-0.04875-0.0575-0.13555-0.01531-0.2168 0.05469-0.10625 0.09125-0.25609 0.20172-0.49609 0.32422-0.37 0.185-0.64539 0.21969-1.0254 0.17969-0.555-0.05625-4.6776-1.029-5.4551-1.1777l-0.01563-3.9102c-0.01-0.7225-0.0052-1.1917 0.21484-1.4805 0.13125-0.17875 0.25555-0.31797 0.37305-0.41797 0.1175-0.10125 0.16328-0.19055 0.11328-0.24805-0.02437-0.02875-0.06227-0.03266-0.11133-0.01563zm67.818 3.3848c-0.4992 0.05323-0.89422 0.25914-1.1445 0.53711-0.37625 0.42625-0.63898 0.88961-0.64648 1.8496-0.92625-0.36375-2.8714-0.60469-3.8789 0.47656-0.7475 0.80375-1.178 2.7148 1.2383 4.9648 1.5475 1.44 2.8309 1.5804 3.4609 1.6504 0.40375 1.5138 0.71445 1.9946 2.002 3.1934l0.86914 0.80859c0.24875 0.23 0.36477 0.28867 0.41602 0.23242 0.07-0.07375 0.0212-0.13547-0.0801-0.23047-0.22625-0.21-0.70875-0.93672-0.90625-1.4492-0.1675-0.43125-0.44477-1.1534-0.72852-2.3672 1.22-0.02 2.484-0.44695 3.1465-1.1582 0.1025-0.11125-0.0154-0.32547-0.21289-0.54297-0.58125-0.645-1.0237-1.0749-1.2949-1.3262-0.09-0.085-0.19688-0.14992-0.26563-0.07617-0.0513 0.055-0.001 0.13672 0.0664 0.19922 0.17 0.1575 0.38203 0.4068 0.42578 0.6543 0.0575 0.2775-0.0529 0.48625-0.18164 0.625-0.525 0.56375-1.4009 0.87117-1.8672 0.91992-0.0675-0.35625-0.50398-2.677-0.55273-3.3945-0.1375-1.6638-0.42008-3.307 0.38867-4.1758 0.73125-0.785 1.7145-0.37094 2.1895 0.07031 0.6325 0.58875 0.84844 1.1515 0.86719 1.584 0.025 0.47125-0.17274 0.84078-0.39649 1.082-0.12874 0.13875-0.15148 0.18555-0.084 0.24805 0.0687 0.0625 0.13 0.08625 0.28125-0.03125 0.1625-0.1075 0.94281-0.76336 1.2266-1.0684 0.10375-0.11 0.1725-0.18297 0.0312-0.41797-0.21-0.385-0.63304-0.9518-1.1855-1.4668-1.2289-1.143-2.3516-1.4793-3.1836-1.3906zm-36.471 0.42578c-0.04625 0.0038-0.10023 0.03703-0.14648 0.05078-0.0725 0.02625-0.22094 0.05875-0.39844 0.09375-0.17625 0.02625-2.0438 0.20102-2.3438 0.22852-0.13125 0.0125-0.34875 0.02461-0.59375 0.03711-0.23375 0.0225-0.50922 0.03875-0.76172 0.0625-0.14125 0.0125-0.20352 0.03656-0.19727 0.10156 0.0063 0.06625 0.06227 0.08031 0.16602 0.07031 0.13125-0.0125 0.29289-0.01711 0.36914-0.0059 0.31625 0.0375 0.40438 0.17859 0.45312 0.49609 0.0475 0.29875 0.07133 0.56203 0.20508 1.9883l0.1543 1.6504c0.08125 0.86375 0.14867 1.6064 0.13867 2.0039-0.0125 0.27625-0.03891 0.48602-0.22266 0.54102-0.0825 0.02625-0.19469 0.05656-0.33594 0.07031-0.1125 0.01-0.14758 0.04164-0.14258 0.08789 0.0063 0.06625 0.07602 0.08742 0.19727 0.07617 0.1875-0.0175 0.43023-0.05813 0.64648-0.07813 0.22375-0.03 0.42945-0.04984 0.5332-0.05859 0.28125-0.0275 0.57227-0.0457 0.97852-0.06445 0.40375-0.02875 0.92195-0.0568 1.627-0.12305 0.35625-0.0325 0.43867-0.04102 0.48242-0.29102 0.02875-0.19125 0.04344-0.83648 0.02344-1.0527-0.0087-0.09375-0.01484-0.16961-0.08984-0.16211-0.06625 0.005-0.07984 0.04539-0.08984 0.15039-0.02875 0.39-0.12492 0.59938-0.35742 0.73438-0.23375 0.135-0.62609 0.16961-0.87109 0.19336-0.95625 0.08875-1.1205-0.03734-1.1992-0.68359-0.035-0.27125-0.10672-1.1344-0.13672-1.4531l-0.068-0.74c-0.005-0.05625-0.000625-0.09586 0.04687-0.09961 0.225-0.02125 1.1559-0.0982 1.3359-0.0957 0.35 0.005 0.49484 0.13266 0.55859 0.31641 0.04 0.11875 0.05156 0.24148 0.07031 0.33398 0.0037 0.0475 0.02555 0.08242 0.0918 0.07617 0.08375-0.0088 0.07266-0.11055 0.06641-0.18555-0.0062-0.06625-0.01203-0.44406-0.01953-0.63281-0.0075-0.4825 0.01477-0.63711 0.0098-0.69336-0.005-0.05625-0.03477-0.07211-0.07227-0.06836-0.0475 0.005-0.07992 0.05547-0.13867 0.13672-0.07625 0.10125-0.21375 0.14164-0.4375 0.18164-0.21375 0.04-1.2938 0.14141-1.5 0.16016-0.05625 0.0063-0.06797-0.03266-0.07422-0.09766l-0.2207-2.373c-0.0063-0.06625 0.0084-0.09586 0.05469-0.09961 0.1875-0.0175 1.1747-0.09164 1.3359-0.08789 0.47375 0.0125 0.57891 0.1168 0.66016 0.2793 0.0575 0.10875 0.08164 0.26703 0.08789 0.33203 0.0087 0.085 0.03141 0.1293 0.09766 0.12305 0.065-0.0062 0.07898-0.06383 0.08398-0.11133 0.0087-0.115-0.01172-0.52805-0.01172-0.62305-0.01125-0.435 0.02578-0.55094 0.01953-0.61719-0.005-0.04625-0.01695-0.08312-0.06445-0.07813zm6.3828 0.2793c-0.03609 0.0063-0.05625 0.02414-0.0625 0.05664-0.0125 0.065 0.03938 0.09523 0.14062 0.11523 0.13 0.02375 0.28617 0.0632 0.35742 0.0957 0.2925 0.12375 0.33617 0.28602 0.29492 0.60352-0.03875 0.3-0.08742 0.56055-0.35742 1.9668l-0.3125 1.6289c-0.16375 0.8525-0.30453 1.5829-0.42578 1.9629-0.0875 0.26125-0.17274 0.45578-0.36524 0.45703-0.08625 0.0025-0.20109 0.000156-0.33984-0.02734-0.11125-0.02125-0.15531 0.000625-0.16406 0.04687-0.0125 0.065 0.04797 0.10445 0.16797 0.12695 0.37 0.07125 0.95852 0.15766 1.1348 0.19141 0.13875 0.02625 0.81922 0.18336 1.3555 0.28711 0.12 0.0225 0.19062 0.0084 0.20312-0.05664 0.01-0.04625-0.02391-0.08195-0.09766-0.0957-0.11125-0.02125-0.31031-0.07805-0.44531-0.12305-0.27125-0.09125-0.28742-0.30438-0.26367-0.57812 0.02875-0.3975 0.16898-1.129 0.33398-1.9902l0.02539-0.13086c0.01125-0.055 0.04164-0.0693 0.08789-0.06055l0.80078 0.17383c0.065 0.0125 0.12 0.03391 0.15625 0.09766 0.09375 0.1625 0.39742 0.87312 0.66992 1.4531 0.38125 0.8125 0.64836 1.3148 1.0059 1.6035 0.21625 0.17625 0.43953 0.26844 0.95703 0.36719l0.88086 0.16797c0.11125 0.02125 0.17961 0.01516 0.19336-0.05859 0.0087-0.04625-0.02195-0.08195-0.0957-0.0957-0.075-0.01375-0.15711-0.03867-0.25586-0.07617-0.13375-0.055-0.49906-0.19383-0.91406-0.83008-0.43625-0.67875-0.91797-1.6253-1.543-2.8203 1.08-0.58 1.4886-1.1529 1.6211-1.8379 0.11875-0.62-0.16172-1.1637-0.38672-1.3887-0.435-0.43875-1.0432-0.61336-1.627-0.72461-0.28625-0.055-0.99555-0.16266-1.3105-0.22266-0.19375-0.0375-0.77172-0.17773-1.2617-0.27148-0.06937-0.01375-0.12211-0.01992-0.1582-0.01367zm1.9746 0.85156c0.0975-0.01 0.26484 0.01164 0.49609 0.05664 0.54625 0.105 1.3443 0.65109 1.0918 1.9648-0.14625 0.76-0.49695 1.1352-0.81445 1.2852-0.18875 0.08875-0.31555 0.1025-0.68555 0.03125-0.2325-0.04375-0.50305-0.12602-0.68555-0.22852-0.06-0.04-0.07273-0.07914-0.05273-0.18164l0.54102-2.8145c0.01375-0.07375 0.04063-0.10703 0.10938-0.11328zm-17.676 0.312c-0.03656 0.000468-0.08375 0.01461-0.14062 0.03711-0.2625 0.1025-0.6657 0.29086-0.81445 0.34961-0.11375 0.045-0.49289 0.16344-0.93164 0.33594-0.16625 0.06625-0.23844 0.11555-0.21094 0.18555 0.02375 0.06125 0.09703 0.04297 0.17578 0.01172 0.115-0.045 0.24914-0.0875 0.36914-0.09375 0.08875-0.005 0.15219 0.05109 0.17969 0.12109 0.03125 0.08 0.04758 0.22422 0.04883 0.35547 0.01625 0.66125-0.01031 3.9351-0.0078 5.0488l-0.03711 0.01367-3.0742-3.3887c-0.2475-0.2675-0.42375-0.48195-0.46875-0.5957-0.03-0.07875-0.02938-0.15125 0.01563-0.21875 0.04875-0.08 0.17836-0.14031 0.31836-0.19531 0.07875-0.03125 0.12531-0.06961 0.10156-0.13086-0.025-0.0625-0.12938-0.04125-0.23438 0-0.43875 0.17125-0.84836 0.36297-1.0684 0.44922-0.30625 0.12125-0.8175 0.29211-1.2812 0.47461-0.1325 0.05375-0.22476 0.09992-0.19726 0.16992 0.02125 0.0525 0.05602 0.06836 0.13476 0.03711 0.07-0.0275 0.21117-0.08141 0.35742-0.09766 0.35-0.0375 0.53648-0.000156 0.92773 0.40234l4.3203 4.4902c0.32875 0.3475 0.42922 0.4493 0.54297 0.4043 0.1225-0.04875 0.12164-0.20984 0.15039-0.80859 0.02-0.51375 0.05508-1.6335 0.11133-3.1348 0.04875-1.2662 0.09969-1.8323 0.11719-2.791 0.01625-0.655 0.08937-0.85672 0.17188-0.98047 0.1175-0.1675 0.30117-0.23969 0.38867-0.27344 0.0875-0.035 0.13438-0.07352 0.10938-0.13477-0.01187-0.03063-0.03766-0.04344-0.07422-0.04297zm43.484 1.0898c0.17002-0.000019 0.33242 0.01922 0.48242 0.05078-0.02375 0.41 0.08031 1.748 0.13281 2.2793 0.05375 0.5325 0.32774 2.4119 0.55274 3.4844-0.40875-0.03625-1.4991-0.36188-2.3691-1.1719-1.175-1.0938-1.4793-2.7571-0.4043-3.9121 0.51656-0.555 1.0954-0.73041 1.6055-0.73047zm-15.357 1.582c-0.65145 0.0186-1.1949 0.34297-1.4863 0.92188-0.3425 0.6825-0.31836 1.433 0.24414 2.623l0.23438 0.49805c0.42375 0.89875 0.35789 1.3492 0.15039 1.7617-0.225 0.44625-0.85258 0.77383-1.6113 0.39258-0.5225-0.2625-0.90609-0.73883-0.77734-1.4551 0.03-0.165 0.08562-0.35805 0.14062-0.4668 0.03375-0.0675 0.06133-0.1468-0.01367-0.18555-0.0675-0.03375-0.13969 0.04547-0.21094 0.16797-0.07625 0.13-0.3632 0.61828-0.5957 1.082-0.0925 0.185-0.08938 0.24094 0.01563 0.36719 0.28125 0.3425 0.63164 0.59094 1.1191 0.83594 0.4475 0.225 0.95742 0.38562 1.5137 0.32812 0.805-0.09125 1.2811-0.57961 1.5273-1.0684 0.40125-0.8 0.33102-1.563-0.30273-2.8418l-0.14648-0.29492c-0.4325-0.88125-0.4782-1.2727-0.2832-1.6602 0.25375-0.505 0.81375-0.67898 1.4375-0.36523 0.5475 0.275 0.66594 0.65125 0.71094 0.875 0.0675 0.3075-0.0218 0.58976-0.06055 0.66602-0.05 0.1-0.04899 0.16336 0.0098 0.19336 0.06625 0.03375 0.12625-0.02008 0.21875-0.20508 0.33-0.6575 0.48602-0.88414 0.54102-0.99414 0.03-0.05875 0.0011-0.10516-0.06641-0.16016-0.19-0.17-0.50133-0.43203-1.0488-0.70703-0.43875-0.22078-0.86889-0.31976-1.2598-0.30859zm-39.572 2.8613c-0.03469 0.01063-0.07563 0.03601-0.125 0.07227-0.28875 0.2125-0.72211 0.56312-0.91211 0.70312-0.22125 0.16-0.71781 0.48797-1.0078 0.69922-0.12125 0.0875-0.17047 0.14641-0.13672 0.19141 0.04375 0.06125 0.10148 0.04453 0.17773-0.01172 0.09125-0.06625 0.19367-0.13117 0.29492-0.16992 0.195-0.08375 0.36531-0.01047 0.57031 0.23828 0.1925 0.23125 0.34836 0.44406 1.1934 1.6016l0.97656 1.3418c0.53875 0.73875 0.97883 1.34 1.1738 1.6875 0.1375 0.2375 0.18664 0.39977 0.05664 0.54102-0.0575 0.06625-0.1382 0.14672-0.25195 0.23047-0.09125 0.06625-0.10367 0.11164-0.07617 0.15039 0.03875 0.0525 0.10828 0.03734 0.20703-0.03516 0.305-0.2225 0.76641-0.59516 0.94141-0.72266 0.20625-0.15125 0.70258-0.4782 1.2051-0.8457 0.08375-0.06 0.12859-0.12594 0.08984-0.17969-0.0275-0.0375-0.08227-0.03391-0.16602 0.02734-0.11375 0.08375-0.29266 0.19141-0.41016 0.25391-0.25125 0.13625-0.40438 0.03641-0.57812-0.15234-0.269-0.304-0.708-0.905-1.247-1.644l-0.97852-1.3398c-0.84375-1.1575-0.99961-1.3712-1.1621-1.625-0.17875-0.27875-0.21266-0.45312-0.03516-0.64062 0.08125-0.0825 0.13664-0.1332 0.21289-0.18945 0.07625-0.055 0.1082-0.10476 0.06445-0.16602-0.01687-0.0225-0.04344-0.02625-0.07812-0.01563zm47.094 1.627c-0.03625-0.01531-0.06195-0.01406-0.08008 0.0078-0.04875 0.0575-0.01852 0.10992 0.05273 0.16992 0.08625 0.07375 0.17508 0.15859 0.23633 0.24609 0.1275 0.17 0.09555 0.35508-0.0957 0.61133-0.18 0.24375-0.34898 0.44477-1.2715 1.541l-1.0684 1.2676c-0.5875 0.7-1.0681 1.2705-1.3594 1.543-0.1975 0.19-0.34297 0.27609-0.51172 0.18359-0.0775-0.04-0.17641-0.0975-0.28516-0.1875-0.08625-0.07375-0.13406-0.07727-0.16406-0.04102-0.0425 0.05-0.0098 0.11461 0.08398 0.19336 0.2875 0.2425 0.76148 0.60344 0.92773 0.74219 0.195 0.16375 0.63047 0.5675 1.1055 0.96875 0.08 0.06625 0.15602 0.09422 0.19727 0.04297 0.03125-0.035 0.01234-0.08805-0.06641-0.1543-0.1075-0.09125-0.255-0.23914-0.34375-0.33789-0.19125-0.21125-0.13148-0.3832 0.0098-0.5957 0.2325-0.33375 0.71203-0.90352 1.3008-1.6035l1.0664-1.2695c0.9225-1.0962 1.094-1.2969 1.3027-1.5156 0.2275-0.24 0.38633-0.31625 0.61133-0.1875 0.09875 0.0575 0.16383 0.10016 0.23633 0.16016 0.0725 0.06125 0.12703 0.08289 0.17578 0.02539 0.03625-0.0425-0.01102-0.1068-0.10352-0.18555-0.275-0.23125-0.71844-0.56625-0.89844-0.71875-0.20875-0.17625-0.64422-0.58055-0.91797-0.81055-0.05812-0.04812-0.10438-0.08039-0.14062-0.0957zm-71.439 1.498c-0.02453 0.000781-0.04641 0.01375-0.06641 0.04687-0.04 0.06625-0.05719 0.16383-0.08594 0.23633-0.0425 0.11875-0.14805 0.34367-0.2793 0.60742-0.14125 0.25625-1.7359 2.8802-1.9922 3.3027-0.1125 0.18375-0.30859 0.48016-0.52734 0.81641-0.20125 0.33-0.44195 0.70625-0.6582 1.0625-0.12125 0.1975-0.15508 0.30461-0.08008 0.34961 0.07625 0.04625 0.14367-0.02102 0.23242-0.16602 0.1125-0.185 0.25945-0.40164 0.3457-0.49414 0.34-0.38875 0.57524-0.38961 0.95898-0.19336 0.36125 0.18375 0.66273 0.36703 2.3027 1.3633l1.8984 1.1543c0.9925 0.6025 1.846 1.1184 2.2598 1.4609 0.28 0.2425 0.47688 0.45414 0.35938 0.74414-0.05 0.13125-0.12414 0.30125-0.24414 0.5-0.09625 0.1575-0.09602 0.23117-0.04102 0.26367 0.075 0.04625 0.16383-0.02797 0.26758-0.19922 0.16-0.26375 0.3475-0.61812 0.53125-0.92187 0.18125-0.3225 0.35656-0.61281 0.44531-0.75781 0.24-0.39625 0.50094-0.79977 0.86719-1.3535 0.355-0.56 0.81672-1.273 1.418-2.2617 0.30375-0.50125 0.37734-0.61836 0.15234-0.88086-0.175-0.1975-0.845-0.75039-1.0938-0.90039-0.1075-0.06625-0.19406-0.11797-0.25781-0.01172-0.05625 0.0925-0.03023 0.14539 0.07227 0.24414 0.38625 0.36 0.51625 0.65688 0.4375 1.0781-0.07875 0.4225-0.4143 0.97586-0.62305 1.3184-0.8175 1.345-1.1072 1.4575-1.8672 1.0312-0.32125-0.17625-1.3056-0.79312-1.6719-1.0156l-0.85352-0.51953c-0.065-0.03875-0.10055-0.07633-0.06055-0.14258 0.1925-0.31625 0.99617-1.616 1.1699-1.8535 0.34-0.4625 0.61484-0.54742 0.87109-0.48242 0.165 0.045 0.30438 0.13109 0.42188 0.18359 0.05375 0.0325 0.11172 0.03195 0.16797-0.06055 0.0725-0.11875-0.04656-0.19164-0.13281-0.24414-0.07625-0.045-0.48391-0.34648-0.69141-0.49023-0.51875-0.3875-0.65766-0.54523-0.72266-0.58398-0.065-0.04-0.11008-0.01344-0.14258 0.03906-0.04 0.06625-0.01828 0.15117 0.01172 0.29492 0.035 0.185-0.05141 0.40242-0.22266 0.73242-0.1625 0.31625-1.0855 1.833-1.2617 2.123-0.0475 0.07875-0.09758 0.06578-0.17383 0.01953l-2.7285-1.6582c-0.07625-0.045-0.09273-0.09195-0.05273-0.1582 0.16-0.26375 1.0241-1.6345 1.1816-1.8457 0.46625-0.62 0.67383-0.67148 0.92383-0.64648 0.17 0.0125 0.36125 0.11 0.4375 0.15625 0.09625 0.05875 0.16641 0.06516 0.22266-0.02734s0.0072-0.15688-0.03906-0.20312c-0.1125-0.105-0.57117-0.4193-0.66992-0.49805-0.4725-0.34125-0.56367-0.485-0.63867-0.53125-0.02688-0.01625-0.05359-0.02813-0.07813-0.02734zm17.549 2.5586c-0.05875-0.04625-0.12226 0.02164-0.19726 0.11914-0.2825 0.3675-0.47727 0.66945-0.54102 0.75195-0.12 0.15625-0.42 0.49602-0.71875 0.88477-0.08625 0.11125-0.14203 0.19984-0.08203 0.24609 0.045 0.035 0.08945 0.02039 0.1582-0.06836 0.08125-0.105 0.21836-0.28508 0.34961-0.36133 0.2125-0.1225 0.40789-0.07883 0.86914 0.26367l3.4121 2.5059-0.0293 0.03516c-0.2175 0.03625-2.068 0.21648-2.9668 0.33398-1.9225 0.2575-4.0134 0.45766-4.1797 0.47266-0.2325 0.02375-0.38156 0.01516-0.44531 0.09766-0.0575 0.075 0.02969 0.17797 0.17969 0.29297l4.3711 3.4707c0.64375 0.5075 0.83805 0.70336 0.74805 0.94336-0.05 0.1275-0.14766 0.26773-0.22266 0.36523-0.0575 0.075-0.07625 0.13031-0.03125 0.16406 0.0675 0.0525 0.12617-0.008 0.20117-0.10547 0.29875-0.38875 0.54641-0.75672 0.59766-0.82422 0.10875-0.1425 0.36258-0.42391 0.73633-0.91016 0.08125-0.105 0.11664-0.18352 0.05664-0.22852-0.045-0.035-0.0925-0.000468-0.15625 0.08203-0.09125 0.11875-0.20906 0.2532-0.35156 0.3457-0.16625 0.11-0.4375 0.05875-1.0312-0.375l-3.2012-2.332 0.01758-0.02148c0.245-0.025 1.8162-0.13633 3.25-0.33008 1.3675-0.185 3.0826-0.38938 3.8926-0.51562 0.145-0.01875 0.29758-0.04445 0.36133-0.12695 0.05125-0.06625 0.0068-0.14914-0.1582-0.27539l-4.6523-3.709c-0.4125-0.32875-0.52312-0.51062-0.42188-0.76562 0.0475-0.1075 0.09289-0.16524 0.15039-0.24024 0.06875-0.09 0.08016-0.15055 0.03516-0.18555zm27.254 1.0781c-3.4575 1.1838-6.9142 2.4966-10.355 3.8066-0.1425 0.0475-0.36461 0.0782-0.50586 0.25195-0.07875 0.0625-0.07875 0.2207 0 0.2832 0.69375-0.09375 1.2164-0.04563 1.9102-0.14062 0.17375-0.06375 0.25266-0.34703 0.44141-0.39453 0.31625-0.17375 0.72609-0.17375 1.0273 0.03125 0.0475 0.11125 0.14195 0.18945 0.25195 0.18945 0.6475 0.23625 0.91688-0.39586 1.4531-0.47461 0.31625-0.01625 0.61531-0.02984 0.82031 0.22266 0.52125-0.03125 1.2169 0.21977 1.4219-0.39648 0.37875-0.37875 0.9318-0.55203 1.4043-0.42578 0.39625 0.0475 0.75789 0.31719 0.96289 0.64844 0.285 0 0.55281 0.03125 0.85156-0.03125 0.22125-0.47375 0.74375-0.60094 1.2188-0.64844 0.48875-0.06375 0.86727 0.17336 1.1348 0.56836 0.36375-0.095 0.99422 0.23609 1.1992-0.28516 0.4275-0.315 1.0262-0.34758 1.5312-0.17383 0.38 0.49 0.97945 0.46024 1.5332 0.39648 0.28375-0.505 0.94812-0.55336 1.5156-0.50586 0.42625 0 0.69352 0.42586 1.041 0.53711 0.37875 0.015 0.91672 0.14117 1.1992-0.11133-1.8462-1.1212-3.756-2.1938-5.6348-3.3301l-3.2051-0.01758c-0.79 0.3475-1.5159 0.87062-2.2422 1.2969-1.1688 0.6625-2.2414 1.4352-3.4414 1.9727-0.5525-0.3475-1.1376-0.31633-1.7051-0.14258-0.42625-0.01625-0.52039 0.58328-1.0254 0.33203-0.0475-0.0325-0.01758-0.09633-0.04883-0.14258 1.5788-0.66375 3.2214-1.2477 4.8477-1.8164l2.3984-1.3574v-0.14258zm6.0156 0.30274-0.04687 0.0625c1.5462 1.025 3.2526 1.958 4.8301 2.873 0.50625 0 1.202-0.28367 1.6758 0.17383 0.3475 0.11 0.34781 0.61711 0.75781 0.50586 0.47375-0.42625 0.99242-0.26883 1.5449-0.14258 0.47375 0.47375 0.86875 0.53711 1.5 0.56836 0.1425-0.015 0.08008-0.1732 0.11133-0.25195-0.095-0.26875-0.44148-0.25266-0.61524-0.37891l-7.4199-2.6055-2.3379-0.80469zm26.84 0.33984c-0.03422 0.0028-0.07859 0.01859-0.13672 0.04297-0.0725 0.0275-0.87555 0.38125-0.99805 0.46875-0.08375 0.06-0.11172 0.1025-0.07422 0.15625 0.03375 0.04625 0.07984 0.04633 0.15234 0.01758s0.19258-0.05555 0.36133-0.06055c0.25125-0.005 0.42211 0.15023 0.75586 0.58398l0.8457 1.1211-3.1445 2.2461c-0.70625 0.50375-1.3134 0.93641-1.6621 1.1289-0.23875 0.135-0.44008 0.21133-0.58008 0.08008-0.065-0.05875-0.14602-0.14086-0.22852-0.25586-0.06625-0.09125-0.11164-0.10563-0.15039-0.07813-0.0525 0.03875-0.03609 0.10898 0.03516 0.20898 0.21875 0.30625 0.58789 0.77297 0.71289 0.94922 0.15375 0.21375 0.47469 0.71445 0.83594 1.2207 0.06 0.085 0.12789 0.12859 0.18164 0.08984 0.0375-0.0275 0.03461-0.08102-0.02539-0.16602-0.0825-0.115-0.18875-0.29461-0.25-0.41211-0.13375-0.2525 0.0024-0.4175 0.20117-0.59375 0.3025-0.275 0.90898-0.70914 1.6152-1.2129l3.1445-2.2461 0.66797 0.98438c0.47125 0.69375 0.40359 1.0534 0.21484 1.2109l-0.07813 0.06836c-0.11 0.09-0.1375 0.13281-0.09375 0.19531 0.03375 0.04625 0.08938 0.02672 0.17188-0.01953 0.2-0.1425 0.745-0.49828 0.90625-0.61328 0.115-0.0825 0.15789-0.12203 0.11914-0.17578-0.0225-0.03125-0.0825-0.08094-0.1875-0.17969-0.0975-0.10375-0.24102-0.2557-0.41602-0.50195l-2.1699-3.0391c-0.18-0.2525-0.37281-0.55492-0.50781-0.79492-0.1225-0.2025-0.10078-0.33328-0.14453-0.39453-0.01625-0.02313-0.04-0.03211-0.07422-0.0293zm18.107 0.20312c-0.0686-0.0175-0.15813-0.01531-0.26563 0.0078l-8.123 2.0156c-0.4225 0.1075-0.92438 0.19844-1.1719-0.16406-0.13-0.195-0.17336-0.29375-0.22461-0.40625-0.0637-0.14125-0.12609-0.21375-0.18359-0.1875-0.10375 0.0475-0.0755 0.17055-0.0117 0.31055 0.20375 0.45 0.54672 1.1087 0.66797 1.375 0.115 0.2525 0.36727 0.89953 0.63477 1.4883 0.095 0.21125 0.1775 0.32875 0.28124 0.28125 0.0563-0.02625 0.0337-0.13555-0.0176-0.24805-0.0638-0.14-0.14024-0.34148-0.20899-0.61523-0.0625-0.26-0.043-0.48914 0.17578-0.58789 0.18375-0.08375 0.33985-0.13883 0.5586-0.20508l4.9062-1.3477 0.0254 0.05664c-0.63875 0.88375-1.703 2.3848-1.8867 2.6211-0.245 0.31375-1.5 2.2213-1.875 2.7988-0.2425 0.38125-0.40906 0.62766-0.35156 0.75391 0.0575 0.1275 0.19336 0.14906 0.88086 0.22656l6.6094 0.69141 0.0234 0.05664-4.6719 3.1387c-0.29625 0.2025-0.46414 0.23-0.52539 0.15625-0.08-0.0825-0.13976-0.12391-0.19726-0.09766-0.07 0.03125-0.0639 0.13109 0.0586 0.46484 0.22125 0.5775 1.0678 2.5316 1.2266 2.8828 0.09 0.19625 0.20047 0.34914 0.29297 0.30664 0.0687-0.03125 0.0353-0.13352-0.0234-0.25976-0.0825-0.1825-0.19804-0.47008-0.27929-0.92383-0.0875-0.46875 0.1814-0.7618 0.84765-1.2168l6.5195-4.5059c0.2225-0.15125 0.29968-0.28781 0.24218-0.41406s-0.18101-0.15484-0.41601-0.18359l-8.2988-0.83789 4.7383-6.7793c0.21625-0.31875 0.2368-0.43047 0.18555-0.54297-0.0256-0.05562-0.074-0.09188-0.14258-0.10938zm-39.516 2.8672c-0.28375 0.015-0.50594 0.17391-0.71094 0.34766l-0.63086-0.03125c-0.14125 0.41 0.06242 0.85109-0.04883 1.2773h-13.498l-0.67773 0.0625c-1.5162 0.2525-3.3145 0.39594-4.7832 0.64844-0.1575-0.0475-0.34836 0.1093-0.50586-0.0332l-0.59961-1.041-0.74219 0.03125c0.41 0.6325 0.67797 1.3733 1.168 1.9258 1.9725-0.3 3.8999-0.50531 5.8262-0.82031 4.2625 0.03125 9.0923-0.06375 13.465-0.03125 0.1425 0.53625 0.11195 1.0112 0.0332 1.5625h-6c-0.0775-0.04625-0.11008 0.1425-0.17383 0h-6.7559c-1.6575 0.1425-3.1739 0.37906-4.9102 0.57031-0.19-0.27-0.44273-0.52226-0.55273-0.82226l-0.67969 0.10937c0.26875 0.5375 0.55352 1.0575 0.88476 1.5625l3.7266-0.50391c2.1625-0.34625 4.6877-0.17383 6.709-0.23633h7.2461l4.832 0.42578c0.33125-0.6775 0.70914-1.3571 0.99414-2.0684-1.0575-0.33125-2.3514-0.39586-3.4727-0.59961-0.4575-0.08-1.0569-0.0782-1.4844-0.2832 0.01625-0.1425 0.12508-0.22266 0.26758-0.22266 1.705 0.15875 3.2377 0.45844 4.9902 0.61719 0.125-0.50625 0.61594-0.7743 0.77344-1.2793-0.23625-0.17375-0.64789-0.11133-0.96289-0.17383-0.41125-0.36375-0.91688-0.72516-1.4844-0.44141-0.22125 0.37875-0.63164 0.06312-0.96289 0.07812-0.28375-0.42625-0.82055-0.58336-1.2793-0.63086zm-2.8105 5.0039v0.03125c0.000673 0.000013 0.0013-0.000013 0.002 0l-0.002-0.03125zm0.002 0.03125 0.0293 0.63086c-0.07875 0.0475-0.06312 0.1107 0.01562 0.1582 0.82125-0.01625 1.5791 0.17445 2.3691 0.12695-0.01625-0.26875 0.14258-0.49094 0.08008-0.71094-0.94674-0.07869-1.6588-0.18869-2.4941-0.20508zm-3.9824 0.16016c-0.12438-0.0019-0.22688 0.02867-0.23438 0.1543 2.3675 0.77375 3.6935 3.1592 4.0098 5.4805 0.18875 0.1425 0.45711 0.08008 0.66211 0.17383-0.11 0.26875-0.12633 0.58281-0.23633 0.85156-0.0475 0.19-0.2832 0.20453-0.2832 0.42578l0.03125 4.1211v7.8945h2.5586v-7.9258c0.0475-3.1275-0.07875-6.5991 0-9.8516-0.82125-0.07875-1.7061-0.1582-2.5898-0.12695l-0.03125 2.4785c-0.14125-0.23625-0.17328-0.52094-0.30078-0.77344-0.5375-1.3262-1.7532-2.6999-3.2207-2.8574-0.095-0.0081-0.24086-0.04305-0.36523-0.04492zm-7.832 0.0078c-0.05451 0.0059-0.1068 0.02117-0.1543 0.05273-0.11 0.3475-0.000782 0.69609-0.20703 0.99609-0.61375 0.125-1.3414 0.14133-2.0039 0.20508-0.17375-0.2525-0.14133-0.72664-0.26758-0.93164-0.11-0.01625-0.20578 0.01563-0.30078 0.01563-0.12625 0.285 0.11055 0.72726-0.0957 0.94726-0.53625 0.12625-1.1838 0.09508-1.7363 0.14258-0.1425-0.22125-0.1732-0.47344-0.18945-0.74219l-0.599 0.078c0.0625 0.095-0.03312 0.25266 0.07813 0.31641 0.095 4.515-0.0325 9.6602 0 14.098l-0.04687 7.6094-0.06445 0.34766c0.19 0.08 0.42586 0.11195 0.59961 0.0332 0.1575-0.66375 0.06508-1.1689 0.08008-1.8477l0.0625-17.51 0.03125-1.9102c0.58375-0.12625 1.2314-0.07883 1.8477-0.14258 0.06375 1.0425-0.01563 2.0701 0.04687 3.0801l0.06445 8.209v6.0469l0.59961-0.01563-0.03125-1.9902-0.11133-13.309c0.0625-0.5525 0-1.1688 0-1.7051l0.11133-0.39453c0.14125-0.11125 0.34641 0.03055 0.53516-0.06445 0.47375 0 0.94688-0.09367 1.4219-0.01367v3.4883c-0.17375 0.2375-0.53648 0.09453-0.64648 0.39453 0.03125 0.88375 0.70953 1.6586 0.61328 2.5586l-0.01367 11.051 0.61523-0.01563v-4.2949l0.03125-7.2148c-0.17375-0.5525-0.53711-1.1213-0.59961-1.7051l0.56836-0.125c0.12625-1.9262-0.14242-3.633 0.23633-5.6855-0.13031 0-0.31303-0.07049-0.47656-0.05273zm14.908 0.08398 0.07813 0.74219c0.695 0.1425 1.4052 0.09508 2.0527 0.14258 0.125-0.18875 0.2207-0.39336 0.25195-0.63086-0.88375-0.0475-1.4666-0.22266-2.3828-0.25391zm26.732 0.82617c-0.0625 0.02125-0.0582 0.08891-0.0332 0.16016 0.0362 0.10625 0.0349 0.27656 0.0137 0.41406-0.04 0.20375-0.185 0.50359-0.4375 0.83984-0.355 0.4725-1.9002 2.3458-2.0215 2.457-0.2175 0.205-0.38398 0.36305-0.86524 0.5293l-0.72852 0.25195c-0.1425 0.05-0.51789 0.1807-0.90039 0.2832-0.265 0.07125-0.48844 0.05758-0.58594-0.10742-0.045-0.07375-0.10008-0.17383-0.14258-0.29883-0.035-0.0975-0.07609-0.13414-0.12109-0.11914-0.07125 0.025-0.06524 0.10281-0.02148 0.22656 0.115 0.33 0.33461 0.88297 0.41211 1.1055 0.08375 0.24 0.25156 0.8118 0.44531 1.373 0.04 0.115 0.09305 0.17555 0.1543 0.1543 0.045-0.015 0.05523-0.06922 0.02148-0.16797-0.04375-0.12375-0.09414-0.32578-0.11914-0.45703-0.05625-0.27875 0.11273-0.42766 0.36523-0.53516 0.36375-0.15625 0.73836-0.28398 0.88086-0.33398l0.73047-0.25391c0.29375-0.1025 0.5693-0.19633 0.93555-0.17383 0.43875 0.0275 2.9631 0.5475 3.4219 0.71875 0.3075 0.1125 0.44977 0.17383 0.60352 0.33008 0.1175 0.11 0.21218 0.26672 0.24218 0.35547 0.0337 0.09875 0.084 0.15992 0.14649 0.13867 0.0537-0.01875 0.0513-0.08805 0.0176-0.18555-0.0588-0.16875-0.28867-0.74836-0.35742-0.94336-0.0887-0.25875-0.16242-0.55266-0.26367-0.84766-0.0375-0.10625-0.0703-0.1443-0.13281-0.12305-0.0537 0.01875-0.0432 0.10516-0.0332 0.19141 0.0162 0.16375-0.0695 0.23367-0.15821 0.26367-0.11625 0.04125-0.27836 0.05836-0.50586 0.03711-0.31875-0.02875-2.6671-0.47328-2.9121-0.48828 0.2-0.22875 1.9149-2.2193 2.1387-2.4355 0.1025-0.10625 0.19437-0.18789 0.26562-0.21289 0.0712-0.02375 0.15813-0.0047 0.20313 0.07031 0.0812 0.12125 0.11226 0.17891 0.16601 0.16016 0.0537-0.01875 0.0652-0.07141 0.0352-0.16016-0.13875-0.4-0.29438-0.75781-0.35938-0.94531-0.10125-0.29375-0.30437-0.97086-0.35937-1.1309-0.0375-0.1075-0.0881-0.15938-0.14063-0.14062zm-26.656 0.42188-0.15625 0.0957 0.04688 21.645 0.14258 0.03125c0.6625-0.03125 1.3734 0.11125 2.0996-0.03125 0.01625-0.01625-0.01758-0.03187-0.01758-0.04687l-0.09375-21.424-0.07813-0.12695-1.9434-0.14258zm-46.658 0.32227c-0.0625-0.02-0.10062 0.03906-0.14062 0.16406-0.1125 0.34875-0.26578 0.92375-0.30078 1.0312-0.0025 0.0087-0.21117 0.56469-0.35742 1.0234-0.04125 0.12625-0.04297 0.19484 0.01953 0.21484s0.09641-0.03016 0.12891-0.12891c0.03125-0.09875 0.08961-0.24625 0.13086-0.3125 0.1575-0.27625 0.32477-0.30266 0.63477-0.22266 0.29375 0.075 0.54445 0.1543 1.9082 0.5918l1.123 0.36133c0.925 0.29625 1.7236 0.58117 2.0586 1.2324 0.24375 0.47375 0.21414 0.99953 0.08789 1.3945-0.0975 0.305-0.26726 0.70641-0.72852 1.0039-0.5 0.32375-1.1304 0.40969-2.4316-0.0078l-1.2559-0.40234c-1.365-0.4375-1.6172-0.5182-1.8984-0.62695-0.30875-0.11875-0.4368-0.23984-0.4043-0.49609 0.01625-0.11375 0.02539-0.17203 0.05664-0.26953 0.02875-0.09 0.02859-0.14992-0.03516-0.16992-0.0625-0.02-0.10078 0.03688-0.14453 0.17188-0.10375 0.3225-0.25742 0.89633-0.32617 1.1113-0.08625 0.27-0.29476 0.82648-0.44726 1.3027-0.04375 0.13375-0.04492 0.20266 0.01758 0.22266s0.09836-0.0282 0.13086-0.12695c0.04-0.12625 0.09742-0.27359 0.13867-0.33984 0.1575-0.27625 0.32352-0.30141 0.63477-0.22266 0.29375 0.075 0.54445 0.1543 1.9082 0.5918l1.3105 0.41992c1.3025 0.4175 2.0748 0.29109 2.6348-0.03516 0.8025-0.465 1.1041-1.3199 1.2578-1.7949 0.18625-0.58375 0.29492-1.2617-0.04883-2.0742-0.40375-0.96125-1.4295-1.4-2.4258-1.7188l-0.96-0.308c-1.365-0.4375-1.6172-0.51695-1.8984-0.62695-0.30875-0.11875-0.4368-0.23984-0.4043-0.49609 0.01625-0.11375 0.02539-0.17078 0.05664-0.26953 0.035-0.1075 0.0332-0.1675-0.0293-0.1875zm-17.195 0.0078c-0.045469 0.007-0.071484 0.03344-0.083984 0.08594-0.01375 0.06-0.016953 0.18617-0.033203 0.41992-0.02875 0.23125-0.071797 0.56953-0.18555 1.0508l-1.4043 5.9453c-0.11625 0.49625-0.27406 1.062-0.41406 1.4883-0.11375 0.37-0.27398 0.49133-0.30273 0.61133-0.02 0.09 0.042656 0.15188 0.19141 0.23438 0.09125 0.05375 1.1436 0.60219 1.3398 0.64844 0.135 0.0325 0.20352 0.01711 0.22852-0.08789 0.02125-0.09-0.018125-0.14547-0.10938-0.19922-0.09125-0.0525-0.22039-0.16367-0.36914-0.35742-0.2154-0.288-0.1922-0.663-0.0109-1.541l0.47852-2.248 5.0371 1.1875c1.1312 0.26625 2.1028 0.49711 2.6016 0.69336 0.345 0.13 0.59476 0.28445 0.57226 0.5957-0.0075 0.14125-0.02633 0.32578-0.08008 0.55078-0.0425 0.18-0.02023 0.25063 0.04102 0.26563 0.08625 0.02 0.14906-0.07648 0.19531-0.27148 0.14125-0.60125 0.32766-1.5573 0.41016-1.9023 0.09875-0.42 0.36-1.3564 0.59375-2.3477 0.03875-0.165 0.02961-0.29516-0.05664-0.31641-0.06125-0.01375-0.11555 0.05375-0.1543 0.21875-0.0525 0.225-0.15547 0.55016-0.23047 0.75391-0.155 0.44-0.44703 0.46594-0.80078 0.42969-0.54625-0.05-1.5165-0.27867-2.6465-0.54492l-5.0386-1.191 0.4844-1.882c0.34-1.33 0.77922-1.6544 1.1055-1.6094l0.13867 0.01758c0.1875 0.02875 0.25641 0.01258 0.28516-0.10742 0.02125-0.09-0.04406-0.13789-0.16406-0.18164-0.32-0.075-1.1573-0.31961-1.416-0.38086-0.091875-0.02188-0.1557-0.03437-0.20117-0.02734zm49.662 4.875c-0.15225 0.002-0.30117 0.01336-0.44336 0.03711 0.03125 0.205 0.17453 0.36336 0.26953 0.56836 0.4575-0.2375 1.6425 0.42664 1.5312-0.56836-0.41438 0.02344-0.90068-0.04315-1.3574-0.03711zm9.7949 0.10742c-0.28406 0-0.575 0.02344-0.875 0.07031-0.03125 0.20625 0.0782 0.34711 0.1582 0.50586l1.373-0.03125c0.0475-0.1575 0.19008-0.31586 0.17383-0.47461-0.26875-0.04687-0.54602-0.07031-0.83008-0.07031zm-57.446 10.274c-0.55375 0-1.0267 0.17539-1.418 0.52539-0.39125 0.35-0.58789 0.77469-0.58789 1.2734 0 0.5025 0.19523 0.93141 0.58398 1.2852 0.38875 0.355 0.86312 0.53125 1.4219 0.53125 0.545 0 1.0116-0.17625 1.4004-0.53125 0.38875-0.35375 0.58398-0.78266 0.58398-1.2852 0-0.49875-0.19242-0.92344-0.57617-1.2734-0.385-0.35-0.85445-0.52539-1.4082-0.52539zm103.91 0c-0.55375 0-1.0267 0.17539-1.418 0.52539-0.39125 0.35-0.58789 0.77469-0.58789 1.2734 0 0.5025 0.19523 0.93141 0.58398 1.2852 0.38875 0.355 0.86313 0.53125 1.4219 0.53125 0.545 0 1.0116-0.17625 1.4004-0.53125 0.38875-0.35375 0.58398-0.78266 0.58398-1.2852 0-0.49875-0.19242-0.92344-0.57617-1.2734-0.385-0.35-0.85445-0.52539-1.4082-0.52539zm-59.875 2.6953-0.14258 0.11133c0.0475 0.52125 0.0325 1.0907 0 1.627 0.25375 0.07875 0.61797 0.07813 0.85547 0.04687l11.191-0.03125 5.2578 0.03125 0.0332-1.7363-6.6328-0.01563c-3.5212-0.01625-7.1675 0.01555-10.562-0.0332zm8.752 5.5508c-0.72234-0.01594-1.4403 0.14922-1.9609 0.52734-1.2162 0.8225-1.7851 2.1315-1.6738 3.5215 0.17375 1.105 0.7257 2.2417 1.8145 2.6992 0-0.0475-0.01625-0.10938 0.03125-0.14063-0.9775-1.0112-1.3096-2.7173-0.66211-4.0273 0.6-0.96375 1.6593-1.6562 2.8418-1.625 1.1212 0.0625 2.2112 0.67883 2.7637 1.7363 0.18875 0.2375 0.06328 0.71156 0.42578 0.75781 0.01625-0.94625-0.37789-1.7366-0.99414-2.4316l-0.60156-0.42578v-0.03125c-0.53625-0.34688-1.262-0.54461-1.9844-0.56055zm-0.05078 1.1758c-0.22 0.72625-0.26891 1.4847-0.41016 2.2734-0.23625 0.095-0.56953 0.18211-0.83203 0.28711 0.315 0.105 1.2396-0.03875 1.1309 0.65625 0.07875 0.23625 0.10484 0.55359 0.18359 0.52734 0.11-0.2525 0.13547-0.72211 0.26172-0.97461l0.79102-0.18359c0.12625-0.08 0.83398-0.13867 0.83398-0.13867-0.49-0.18875-1.1382-0.07891-1.5645-0.31641-0.12625-0.63125-0.20703-0.88117-0.26953-1.5449l-0.125-0.58594zm-44.637 15.508c-0.02875 0.01875-0.03883 0.08805-0.01758 0.12305 0.05875 0.09375 0.15867 0.27578 0.20117 0.36328 0.17375 0.36375 0.07625 0.50758-0.1875 0.70508-0.24375 0.185-0.47328 0.32914-1.7383 1.1191l-1.4375 0.89648c-0.78625 0.49125-1.4263 0.89367-1.7988 1.0449-0.26875 0.1025-0.43711 0.175-0.59961 0-0.07875-0.08125-0.17758-0.19922-0.23633-0.29297-0.0375-0.05875-0.09039-0.05852-0.11914-0.04102-0.0475 0.03-0.02984 0.10078 0.03516 0.20703 0.1975 0.31625 0.61477 0.91945 0.66602 1.002 0.05125 0.0825 0.41156 0.72086 0.72656 1.2246 0.07375 0.11625 0.13117 0.14484 0.16992 0.12109 0.02875-0.0175 0.05117-0.06625 0.01367-0.125-0.0575-0.09375-0.14023-0.26938-0.20898-0.42188-0.15875-0.34-0.03586-0.48297 0.18164-0.66797 0.30625-0.25625 0.94812-0.65719 1.7344-1.1484l0.79492-0.49609 0.0293 0.04687c-0.1725 0.79125-0.6857 4.1255-0.68945 4.7793 0 0.61875-0.01359 1.002 0.28516 1.5645 0.12625 0.24625 0.24328 0.43406 0.42578 0.72656l0.33008 0.52734c0.11 0.17625 0.16828 0.20539 0.20703 0.18164s0.03008-0.10188-0.01367-0.17188-0.19875-0.37938-0.28125-0.70312c-0.145-0.5925-0.11273-0.77656-0.02148-2.0391 0.0525-0.61875 0.46781-3.8586 0.53906-4.2773 0.34 0.0975 2.8174 0.99016 3.1699 1.1289 0.64 0.235 0.94703 0.32148 1.3633 0.64648 0.1925 0.1575 0.37766 0.34945 0.47266 0.50195 0.05125 0.08125 0.09602 0.0882 0.13477 0.06445s0.02789-0.08445-0.03711-0.18945c-0.16125-0.25625-0.60633-0.92492-0.64258-0.98242-0.15375-0.24625-0.33234-0.57391-0.46484-0.78516-0.04375-0.07-0.09016-0.10578-0.12891-0.08203-0.02875 0.0175-0.04578 0.07688-0.01953 0.14062 0.0425 0.08875 0.02422 0.16617-0.08203 0.23242-0.13375 0.08375-0.51305-0.05352-0.93555-0.19726-0.5675-0.1825-3.2027-1.0934-3.459-1.1621l-0.02734-0.04688 0.48828-0.30469c1.265-0.79125 1.4938-0.93477 1.7676-1.0723 0.30125-0.15625 0.46024-0.15992 0.67774 0.08008 0.09875 0.11625 0.13789 0.17484 0.18164 0.24609 0.02875 0.04625 0.08844 0.05852 0.11719 0.04102 0.04875-0.03 0.03859-0.08953-0.03516-0.20703-0.19-0.30375-0.5975-0.91211-0.65625-1.0059-0.03625-0.05875-0.41258-0.70312-0.70508-1.1719-0.07375-0.1175-0.12242-0.15305-0.16992-0.12305zm85.58 3.6289c-0.0188-0.003-0.0363 0.0013-0.0488 0.01758-0.0325 0.045-0.0361 0.11086-0.0586 0.16211-0.0475 0.085-0.15055 0.28422-0.2793 0.48047-0.15375 0.23125-1.6531 2.2821-1.7031 2.3496-0.04 0.05625-0.52 0.68141-0.84375 1.1289-0.0812 0.11125-0.0938 0.16938-0.0488 0.20313 0.0275 0.02 0.0973 0.000546 0.12109-0.0332 0.065-0.08875 0.19547-0.24976 0.26172-0.32226 0.27125-0.2975 0.4382-0.25984 0.7207-0.08984 0.2625 0.15625 0.48266 0.31445 1.6914 1.1895l1.373 0.99414c0.75125 0.54375 1.3645 0.98664 1.6445 1.2754 0.19625 0.21 0.33656 0.34469 0.22656 0.55469-0.0562 0.09625-0.1186 0.24008-0.1836 0.33008-0.04 0.05625-0.0197 0.105 0.008 0.125 0.0463 0.0325 0.10523-0.01133 0.17773-0.11133 0.11375-0.1575 0.26578-0.38648 0.39453-0.58398 0.145-0.21875 0.28258-0.40914 0.29883-0.43164 0.105-0.145 0.29063-0.40148 0.60937-0.80273 0.30126-0.39625 0.73258-0.95461 1.2676-1.6934 0.275-0.38 0.34907-0.47961 0.19532-0.69336-0.12375-0.175-0.5986-0.63774-0.65235-0.67774-0.055-0.04-0.12672-0.07453-0.16797-0.01953-0.04 0.05625-0.0301 0.09875 0.0449 0.1875 0.27126 0.28125 0.3118 0.51414 0.2168 0.83789-0.10375 0.3175-0.44461 0.78742-0.63086 1.0449-0.705 0.9725-0.93515 1.0796-1.4726 0.72461-0.16375-0.10125-1.0619-0.76844-1.3281-0.96094l-0.65039-0.4707c-0.0275-0.02-0.0459-0.05117-0.006-0.10742 0.12125-0.1675 0.89274-1.2122 1.1152-1.4609 0.31125-0.35375 0.46851-0.37828 0.60351-0.33203 0.1325 0.02875 0.21336 0.08688 0.28711 0.14062 0.045 0.0325 0.0905 0.03133 0.12305-0.01367 0.0488-0.06625-0.0183-0.14906-0.082-0.19531-0.055-0.04-0.33196-0.27445-0.47071-0.4082-0.24-0.20875-0.32875-0.35812-0.375-0.39062-0.045-0.03375-0.0785-0.02594-0.10351 0.0078-0.0237 0.03375-0.0102 0.11125-0.004 0.21875 0.009 0.16-0.089 0.31305-0.24023 0.56055-0.14375 0.2375-1.0831 1.5345-1.1719 1.6582-0.0413 0.05625-0.068 0.03609-0.12305-0.0039l-2.1152-1.5312c-0.055-0.04-0.0735-0.06953-0.041-0.11328 0.0812-0.1125 0.91468-1.2486 1.0547-1.4023 0.44375-0.4975 0.5725-0.5575 0.75-0.53125 0.12375 0.02125 0.25946 0.10062 0.31446 0.14062 0.0637 0.04625 0.11695 0.05039 0.1582-0.0059 0.0325-0.04375 0.0112-0.11094-0.0176-0.14844-0.075-0.08875-0.40766-0.36274-0.47266-0.42774-0.20375-0.18-0.25359-0.3018-0.30859-0.3418-0.0187-0.01313-0.0398-0.02438-0.0586-0.02734zm-29.053 3.6602c-0.025 0.0125-0.0682 0.05492-0.1582 0.10742-0.085 0.06125-0.22219 0.14531-0.46094 0.25781l-2.0898 0.98242c-0.09375 0.04375-0.14062 0.0975-0.10938 0.1875l0.86133 2.3438c0.04375 0.115 0.12438 0.13086 0.23438 0.09961 0.71875-0.22375 2.4681-0.35719 3.1094 1.0078 0.5225 1.1088 0.0087 1.9014-0.67383 2.2227-0.5975 0.28125-1.2673 0.31484-1.6973-0.59765-0.04375-0.0938-0.08648-0.13813-0.14648-0.10938-0.05125 0.0238-0.04398 0.10352-0.02148 0.19727 0.09 0.30125 0.34016 0.80929 0.47266 1.0918 0.08375 0.17875 0.13711 0.24711 0.31836 0.25586 0.26125 0.002 0.60055-0.0959 0.87305-0.22461 1.9788-0.93 2.2134-2.5811 1.6797-3.7148-0.6975-1.485-2.5791-1.4562-3.9453-1.0625l-0.37109-1.0977 1.5527-0.72852c0.69-0.325 0.85555-0.13133 0.9668 0.10742 0.0325 0.06875 0.07375 0.11289 0.125 0.08789 0.06-0.0275 0.06188-0.09148 0.04687-0.14648-0.1675-0.5775-0.31859-0.96578-0.40234-1.1445-0.06125-0.12875-0.09531-0.15555-0.16406-0.12305zm-22.875 0.98633c-0.0675-0.03125-0.17219-0.0072-0.27344 0.0078-0.4025 0.08125-2.5454 0.38547-2.5879 0.38672-0.055 0.005-0.11688 0.02688-0.14062 0.07813-0.02375 0.05125-0.0016 0.11445 0.02344 0.12695 0.035 0.01625 0.08352 0.01899 0.13476 0.02148 0.22375 0.0125 1.0204-0.01961 1.1816 0.05664 0.12875 0.06 0.08062 0.16219-0.01563 0.36719-0.13625 0.29-0.30914 0.65594-0.52539 1.1172l-0.62891 1.3594c-0.3775 0.82375-0.73406 1.5404-0.94531 1.9004-0.15375 0.26125-0.25344 0.35977-0.55469 0.29102-0.16875-0.0375-0.61523-0.21672-0.70898-0.26172-0.03375-0.015-0.08062-0.005-0.10938 0.0547-0.0275 0.06 0.01563 0.0995 0.10938 0.14454 0.54625 0.25625 1.2745 0.56765 1.4707 0.66015 0.23 0.10875 0.76461 0.39227 1.4121 0.69727 0.09375 0.0438 0.14633 0.0444 0.17383-0.0156 0.02875-0.0588-0.0034-0.10484-0.03711-0.12109-0.06875-0.0325-0.42281-0.23016-0.53906-0.31641-0.245-0.1875-0.2275-0.33414-0.125-0.61914 0.1425-0.3925 0.48414-1.1168 0.86914-1.9355l0.74024-1.5781c0.61375-1.3062 1.0632-2.1266 1.0957-2.1953 0.04-0.085 0.05797-0.19031-0.01953-0.22656zm-26.441 1.709c-0.03078-0.01359-0.05422-0.0096-0.07422 0.0098-0.025 0.02375-0.02898 0.085 0.0098 0.125 0.05625 0.06 0.15367 0.17672 0.23242 0.29297 0.14875 0.22 0.11008 0.39242-0.10742 0.63867-0.20125 0.23125-0.39516 0.41867-1.4727 1.4512l-1.2246 1.1719c-0.67 0.64-1.2251 1.1569-1.5488 1.3906-0.2325 0.165-0.39289 0.25984-0.58789 0.12109-0.09375-0.0637-0.21477-0.15828-0.29102-0.23828-0.0475-0.05-0.0993-0.0394-0.12305-0.0156-0.04125 0.0388-0.01008 0.10532 0.07617 0.19532 0.25875 0.26875 0.80672 0.79375 0.85547 0.84375 0.0375 0.04 0.55859 0.63234 1.0273 1.1211 0.095 0.1 0.15891 0.11649 0.19141 0.084 0.02375-0.0225 0.03773-0.0743-0.0098-0.12305-0.07625-0.08-0.24406-0.28539-0.35156-0.43164-0.215-0.29-0.1125-0.44492 0.0625-0.66992 0.2475-0.31375 0.79414-0.83727 1.4629-1.4785l1.2246-1.1738c1.0775-1.0325 1.2739-1.2187 1.5039-1.4199 0.26375-0.21375 0.40773-0.25859 0.67773-0.05859 0.1125 0.08375 0.17031 0.14508 0.22656 0.20508 0.03 0.03 0.1 0.03742 0.125 0.01367 0.04-0.04 0.01813-0.09336-0.07813-0.19336-0.2575-0.26875-0.81797-0.82258-0.85547-0.86133-0.04875-0.05-0.55773-0.6143-0.83398-0.9043-0.04812-0.05-0.08641-0.08211-0.11719-0.0957zm32.433 0.12c-1.1724 0.02548-2.0228 0.75492-2.1836 1.8574-0.11375 0.78375 0.29812 1.8819 1.6406 2.0781 0.47625 0.0687 0.98047 0 1.293-0.25 0.02125-0.015 0.0568-0.0682 0.06055-0.0957 0.0075-0.0463-0.0243-0.0907-0.06055-0.0957-0.0375-0.005-0.09188 0.0362-0.20312 0.0762-0.12875 0.0387-0.32219 0.067-0.64844 0.0195-0.3175-0.0463-1.1919-0.51711-0.98438-1.9434 0.11625-0.7925 0.65102-1.3241 1.3223-1.2266 0.7175 0.105 1.3116 0.93469 1.0703 2.5859-0.32125 2.2013-1.9984 3.5166-3.0547 3.9629-0.05125 0.03-0.12477 0.0776-0.13476 0.14258-0.0063 0.0463 0.03211 0.10047 0.06836 0.10547 0.075 0.0112 0.12258 0.008 0.17383-0.0137 1.235-0.3725 3.7613-1.6798 4.1426-4.291 0.20625-1.4175-0.46047-2.6564-1.9805-2.8789-0.17953-0.02609-0.354-0.03684-0.52148-0.0332zm8.4023 0.02344c-0.18008-0.000833-0.37297 0.01297-0.57812 0.04297-0.82 0.11875-1.3005 0.35961-1.6367 0.59961-0.0925 0.08-0.09648 0.11812-0.08398 0.20312 0.03875 0.27 0.19945 1.0386 0.2207 1.1211 0.025 0.11125 0.06312 0.17031 0.10938 0.16406 0.0925-0.01375 0.10945-0.09961 0.0957-0.19336-0.035-0.2425 0.06727-0.70562 0.25976-0.95313 0.24125-0.3025 0.53945-0.42297 0.93945-0.48047 0.4675-0.06875 1.3221 0.11219 1.5371 1.5859 0.2875 1.9675-1.3554 3.6937-2.4941 5.0312-0.08125 0.0975-0.16359 0.19453-0.15234 0.26953s0.08414 0.12133 0.15039 0.11133l3.6562-0.5332c0.58625-0.0862 0.73203-0.13664 0.76953-0.40039 0.04625-0.33 0.09938-1.2224 0.07813-1.3711-0.01375-0.0937-0.03656-0.17476-0.10156-0.16601-0.05625 0.008-0.07859 0.0498-0.08984 0.16601-0.0475 0.45375-0.31086 0.81493-0.94336 0.98242-0.3375 0.0975-1.437 0.26727-1.5957 0.29102l-0.63477 0.0937c-0.04625 0.006-0.06859-0.0187-0.02734-0.0625 1.0625-1.1362 2.838-3.0044 2.5742-4.8144-0.14-0.95484-0.79217-1.6817-2.0527-1.6875zm29.49 3.0449c-0.03281 0.0125-0.07289 0.0408-0.11914 0.082-0.27625 0.25125-0.93727 0.87852-0.97852 0.91602-0.05125 0.0463-0.62906 0.5389-1.0391 0.91015-0.10125 0.0925-0.1293 0.14625-0.0918 0.1875 0.0225 0.025 0.09375 0.0229 0.125-0.006 0.08125-0.0737 0.24422-0.20547 0.32422-0.26172 0.3275-0.235 0.48461-0.16445 0.72461 0.0606 0.225 0.2075 0.40625 0.40938 1.4062 1.5156l1.1367 1.2578c0.62125 0.6875 1.13 1.2498 1.3438 1.5898 0.14875 0.24625 0.24922 0.3986 0.10547 0.58985-0.0675 0.0913-0.16485 0.20945-0.2461 0.2832-0.0525 0.0463-0.04203 0.1-0.01953 0.125 0.03875 0.0413 0.10477 0.0115 0.19727-0.0723 0.14375-0.13 0.33031-0.31328 0.50781-0.48828 0.16625-0.16625 0.32008-0.30625 0.36133-0.34375 0.26625-0.24 0.58055-0.50859 0.99805-0.87109 0.435-0.3625 0.94484-0.80883 1.5898-1.3926 0.4825-0.435 0.49039-0.48844 0.40039-0.71094-0.1175-0.275-0.44297-0.75773-0.51172-0.83398-0.0675-0.075-0.1189-0.0902-0.16015-0.0527-0.0513 0.0463-0.0428 0.11508-0.008 0.17383 0.0988 0.17 0.16344 0.38641 0.14844 0.59766-0.0263 0.40375-0.41742 0.77492-0.88867 1.2012-0.7075 0.63875-1.1016 0.90352-1.3516 0.91602-0.2775 0.0225-0.68336-0.38805-1.6309-1.4356l-1.1523-1.2754c-1.0012-1.1062-1.182-1.306-1.377-1.541-0.20625-0.27-0.25414-0.42648-0.02539-0.70898 0.095-0.10125 0.22-0.23016 0.28125-0.28516 0.03125-0.0288 0.05109-0.0902 0.02734-0.11523-0.01875-0.02125-0.04531-0.02422-0.07813-0.0117zm-64.008 2.666c-0.07623 0.006-0.17852 0.092-0.33789 0.33203l-3.0449 4.584c-0.48125 0.725-0.65992 0.91984-0.95117 0.80859-0.17375-0.0625-0.36531-0.17476-0.44531-0.22851-0.04625-0.03-0.1-0.0258-0.125 0.0117-0.03875 0.0575 0.01469 0.10383 0.11719 0.17383 0.46125 0.305 0.90555 0.55984 0.99805 0.62109 0.0925 0.0613 0.47578 0.35578 1.0508 0.73828 0.115 0.0763 0.19531 0.10414 0.22656 0.0566 0.025-0.0375 0.01109-0.0879-0.03516-0.11914-0.0925-0.06-0.31586-0.22281-0.47461-0.38281-0.23875-0.24-0.20016-0.49883 0.21484-1.1738l2.3926-3.8516c0.1225 0.48875 0.61148 2.2242 1.1152 4.0117 0.46375 1.6238 1.1435 3.7703 1.1973 3.9141 0.2825 0.79875 0.34281 0.93516 0.44531 1.0039 0.07 0.045 0.11289 0.006 0.46289-0.52149l3.1367-4.6738c0.32-0.48 0.44906-0.62593 0.82031-0.46094 0.1275 0.0575 0.2057 0.11133 0.25195 0.14258 0.06875 0.045 0.14726 0.0295 0.16602 0.002 0.03125-0.0475-0.04273-0.11219-0.14648-0.17969-0.41375-0.27625-0.76-0.47844-0.875-0.55469-0.115-0.0763-0.58688-0.4157-1.0469-0.7207-0.115-0.0775-0.20117-0.12172-0.23242-0.0742-0.01875 0.0275-0.03875 0.0827 0.03125 0.12891 0.08 0.0525 0.30375 0.21593 0.46875 0.36718 0.28 0.25375 0.21727 0.46985-0.11523 0.9961l-2.5586 4.0781c-0.13625-0.46875-0.58469-2.1379-1.0234-3.6504-0.69-2.3575-1.313-4.6167-1.3867-4.8555-0.0475-0.15375-0.11477-0.42961-0.22852-0.50586-0.02031-0.0134-0.04295-0.0195-0.06836-0.0176zm55.754 3.4902c-0.03469 0.005-0.07906 0.0234-0.13281 0.0547-0.3225 0.18625-1.099 0.66586-1.1465 0.69336-0.06 0.035-0.72758 0.39703-1.2051 0.67578-0.11875 0.07-0.15445 0.11726-0.12695 0.16601 0.0175 0.03 0.0868 0.0427 0.12305 0.0215 0.095-0.055 0.28039-0.15071 0.36914-0.18946 0.37-0.1625 0.50852-0.061 0.69727 0.20899 0.1775 0.25 0.31516 0.48273 1.0664 1.7715l0.85352 1.4668c0.46625 0.8 0.84633 1.4558 0.98633 1.832 0.095 0.27125 0.16242 0.44016-0.01758 0.59766-0.08375 0.075-0.20383 0.17226-0.29883 0.22851-0.06 0.035-0.06242 0.0865-0.04492 0.11524 0.0275 0.0488 0.09953 0.0332 0.20703-0.0293 0.1675-0.0975 0.38891-0.23805 0.59766-0.37305 0.1975-0.12875 0.37633-0.23226 0.42383-0.25976 0.31-0.18125 0.67445-0.37969 1.1582-0.64844 0.5-0.265 1.0905-0.5957 1.8418-1.0332 0.56125-0.3275 0.57961-0.37774 0.53711-0.61524-0.05875-0.2925-0.27562-0.83242-0.32812-0.91992-0.05-0.0875-0.09703-0.11344-0.14453-0.0859-0.06 0.0337-0.06938 0.10368-0.04688 0.16993 0.06125 0.18625 0.08094 0.41148 0.02344 0.61523-0.10875 0.39-0.56719 0.67219-1.1172 0.99219-0.8225 0.47875-1.2623 0.65718-1.5098 0.61719-0.27625-0.035-0.59148-0.51899-1.3027-1.7402l-0.86328-1.4863c-0.75125-1.2888-0.88805-1.523-1.0293-1.793-0.1475-0.3075-0.16211-0.46922 0.11914-0.69922 0.11375-0.0787 0.26469-0.1782 0.33594-0.2207 0.03625-0.02 0.06633-0.0767 0.04883-0.10547-0.01375-0.0244-0.03953-0.0328-0.07422-0.0273zm-7.4395 3.6406c-0.03359-0.002-0.07953 0.0101-0.14453 0.0332-0.35125 0.125-1.0874 0.40898-1.1387 0.42773-0.065 0.0225-0.78852 0.25688-1.166 0.39063-0.13 0.0463-0.1743 0.0862-0.1543 0.13867 0.01125 0.0325 0.06469 0.0617 0.11719 0.043 0.0775-0.0275 0.22383-0.0687 0.36133-0.0937 0.2625-0.045 0.40281 0.0594 0.53906 0.35937 0.1275 0.27875 0.22 0.53516 0.71875 1.9414l0.56641 1.5976c0.31 0.87376 0.55086 1.5912 0.63086 1.9824 0.055 0.28 0.07734 0.46468-0.12891 0.58593-0.0975 0.0588-0.23094 0.13047-0.33594 0.16797-0.065 0.0225-0.0757 0.0742-0.06445 0.10547 0.01875 0.0537 0.09148 0.0523 0.20898 0.01 0.35125-0.125 1.0548-0.4111 1.1211-0.4336 0.05125-0.0187 0.80586-0.24906 1.4434-0.47656 0.13-0.0463 0.17055-0.0962 0.1543-0.13867-0.01125-0.0325-0.05219-0.0667-0.11719-0.043-0.10375 0.0375-0.35891 0.10383-0.53516 0.14258-0.35375 0.0775-0.45344-0.0795-0.58594-0.33203-0.185-0.35375-0.44-1.0677-0.75-1.9414l-0.565-1.61c-0.49875-1.4063-0.59094-1.6606-0.67969-1.9531-0.0875-0.32875-0.06789-0.48078 0.22461-0.64453 0.12375-0.0675 0.2018-0.0956 0.2793-0.12305 0.04-0.0138 0.0757-0.0742 0.06445-0.10547-0.0094-0.0269-0.02891-0.0414-0.0625-0.043zm-34.926 0.46289c-0.29348-0.009-0.59328 0.003-0.89453 0.0469-1.19 0.16875-2.4341 0.90203-2.9141 2.3633-0.37375 1.1375-0.02461 2.3326 0.52539 3.0488 0.99375 1.3138 2.6056 1.9378 3.4844 2.2266 0.67 0.22 1.7523 0.46844 2.5898 0.39844 0.16625-0.0162 0.18086-0.0239 0.31836-0.44141l0.33594-1.0215c0.12625-0.38625 0.21477-0.65641 0.32227-0.94141 0.1325-0.31375 0.27086-0.42133 0.59961-0.36133 0.13875 0.0225 0.21617 0.048 0.29492 0.0742 0.04 0.0125 0.10719-0.0124 0.11719-0.0449 0.02125-0.065-0.02695-0.0942-0.1582-0.13672-0.35375-0.11625-1.0842-0.33211-1.1367-0.34961-0.06625-0.0212-0.83242-0.2975-1.3574-0.46875-0.13125-0.0437-0.18774-0.0501-0.20898 0.0137-0.01 0.0325 0.02766 0.0937 0.06641 0.10742 0.105 0.0337 0.29992 0.11039 0.38867 0.15039 0.4475 0.23125 0.43781 0.34469 0.19531 1.0859l-0.51953 1.5801c-0.05625 0.17125-0.16312 0.18367-0.32812 0.20118-0.3475 0.04-0.89524-0.10454-1.3027-0.23829-1.0625-0.35-1.9499-0.92703-2.6387-1.9258-0.305-0.445-0.81508-1.6344-0.39258-2.9219 0.35-1.0638 1.0902-1.7251 1.8965-1.9238 1.06-0.25875 1.9131-0.0263 2.6094 0.20117 1.495 0.49125 2.2554 1.1452 2.4316 1.584 0.1125 0.275 0.08945 0.565 0.06445 0.6875-0.02875 0.0862-0.0318 0.14476 0.0332 0.16601 0.07875 0.0262 0.14531-0.00039 0.19531-0.15039 0.3-0.9125 0.44578-1.1388 0.48828-1.2676 0.01375-0.0438 0.000313-0.0941-0.11719-0.13281-0.28875-0.095-0.67594-0.28109-0.89844-0.40234-0.20875-0.11625-0.98766-0.48922-1.7227-0.73047-0.66-0.21656-1.4868-0.44826-2.3672-0.47657zm28.58 1.7305c-0.03406-0.007-0.08133-0.007-0.14258 0.002-0.35625 0.0475-0.87391 0.14164-0.94141 0.15039-0.15125 0.0213-0.70289 0.0737-1.1816 0.13867-0.1925 0.0263-0.27117 0.0609-0.26367 0.11719 0.0062 0.045 0.08094 0.0673 0.14844 0.0586 0.1375-0.0187 0.27281-0.0365 0.41406-0.0215 0.1275 0.0162 0.18211 0.099 0.19336 0.17773 0.01 0.0787-0.02555 0.22055-0.06055 0.37305-0.16625 0.71875-1.2985 4.1815-1.8223 5.5527l-2.9258-4.4824c-0.23-0.35625-0.42-0.6275-0.4375-0.75-0.0088-0.0675-0.0023-0.1243 0.11524-0.18555 0.10375-0.0487 0.29414-0.0867 0.43164-0.10547 0.0825-0.0112 0.11758-0.0624 0.11133-0.10742-0.0063-0.045-0.11914-0.0515-0.33789-0.0215-0.46625 0.0637-0.99734 0.15953-1.1211 0.17578-0.15 0.0212-0.83711 0.0912-1.4121 0.16992-0.1925 0.0262-0.31414 0.0544-0.30664 0.10938 0.005 0.0337 0.04063 0.0869 0.10938 0.0781 0.06875-0.01 0.27445-0.0388 0.4707-0.0312 0.4075 0.0237 0.58414 0.10352 0.93164 0.60352l3.752 5.4297c0.29625 0.4275 0.395 0.54024 0.53125 0.52149 0.12375-0.0175 0.17383-0.17211 0.42383-0.78711 0.21-0.5075 0.60234-1.6128 1.1523-3.1016 0.4575-1.2488 0.89023-2.4703 0.99023-2.7578 0.22625-0.69125 0.39828-0.85234 0.55078-0.96484 0.20375-0.14125 0.47805-0.1782 0.56055-0.18945 0.095-0.0125 0.1293-0.0656 0.12305-0.10938-0.0025-0.0225-0.02258-0.0361-0.05664-0.043zm-15.98 0.77735c-1.2895 0.0397-2.1749 0.61219-2.2559 1.5976-0.055 0.665 0.3232 1.2859 1.5645 2.1934l0.52148 0.38282c1.02 0.74125 1.4488 1.1055 1.3926 1.793-0.06 0.72-0.72633 1.2218-1.9238 1.123-0.8125-0.0675-1.699-0.39047-1.834-1.1055-0.03-0.13875-0.01992-0.27281-0.01367-0.35156 0.0063-0.0787-0.03086-0.11609-0.09961-0.12109-0.06875-0.006-0.10188 0.0491-0.10938 0.15039-0.0275 0.15625-0.11359 0.53406-0.15234 1.0078-0.0225 0.25875-0.01156 0.29375 0.14844 0.375 0.48 0.2325 1.1765 0.35609 1.7402 0.40234 0.66125 0.055 1.4238 0.051 1.9551-0.17773 0.90625-0.39 1.2174-0.97852 1.2637-1.541 0.0675-0.8225-0.38602-1.5289-1.791-2.4726l-0.33008-0.21875c-1.1425-0.7625-1.4836-1.1425-1.4336-1.75 0.055-0.67625 0.81406-0.9768 1.6953-0.9043 1.0875 0.09 1.4575 0.48156 1.5312 0.60156 0.06 0.10625 0.13367 0.37453 0.13867 0.48828 0.0075 0.08 0.01711 0.12657 0.09961 0.13282 0.0825 0.007 0.10273-0.0595 0.11523-0.20703 0.05375-0.6525 0.13492-0.96282 0.13867-1.0078 0.005-0.0563-0.02289-0.0706-0.11914-0.0781-0.09625-0.007-0.19188-0.0163-0.42188-0.0801-0.285-0.08-0.76164-0.1768-1.2441-0.2168-0.19953-0.0164-0.39195-0.0213-0.57617-0.0156z" transform="matrix(.8 0 0 -.8 98.765 275.5)" fill="#fcc01f"/><path d="m152.34 236.78c0.405-0.543 0.72-1.2 0.619-1.907-0.113-0.063-0.202 0.038-0.278-0.089 0.039-0.403 0.165-0.782 0.404-1.073l0.026-8.891-5.489-0.028s-0.056 0.166-0.005 0.331v8.815c0.239 0.19 0.277 0.531 0.378 0.821 0.038 0.228-0.442 0.013-0.227 0.291-0.051 0.884 0.429 1.717 1.162 2.185 1.023 0.732 2.602 0.455 3.41-0.455" fill="#fcc01f"/></g></g></g></svg>
